<svg width="20" height="56" viewBox="0 0 20 56" fill="none" xmlns="http://www.w3.org/2000/svg">
<path id="icon" d="M18.9789 2.31349C18.7628 1.51023 18.1295 0.877029 17.3263 0.660736C15.8591 0.259277 9.99 0.259277 9.99 0.259277C9.99 0.259277 4.12113 0.259277 2.65388 0.645515C1.86619 0.86158 1.21742 1.51034 1.00136 2.31349C0.615234 3.78062 0.615234 6.82326 0.615234 6.82326C0.615234 6.82326 0.615234 9.88124 1.00136 11.333C1.21765 12.1362 1.85074 12.7694 2.654 12.9857C4.13658 13.3872 9.99023 13.3872 9.99023 13.3872C9.99023 13.3872 15.8591 13.3872 17.3263 13.001C18.1296 12.7848 18.7628 12.1516 18.9791 11.3485C19.3651 9.88124 19.3651 6.83871 19.3651 6.83871C19.3651 6.83871 19.3806 3.78062 18.9789 2.31349ZM8.12141 9.63416V4.01237L13.0019 6.82326L8.12141 9.63416Z"/>
<use href="#icon" x="0" y="0" fill="#8293B4"/>
<use href="#icon" x="0" y="14" fill="#1E3685"/>
<use href="#icon" x="0" y="28" fill="#FFF"/>
<use href="#icon" x="0" y="42" fill="#000"/>
</svg>
