<svg width="15" height="64" viewBox="0 0 15 64" fill="none" xmlns="http://www.w3.org/2000/svg">

  <path id="icon" d="M14.0442 0.5H0.957942C0.428692 0.5 0 0.928692 0 1.45688V14.5431C0 15.0713 0.428692 15.5 0.957942 15.5H14.0431C14.5713 15.5 15 15.0713 15 14.5431V1.45688C15.0011 0.927634 14.5724 0.5 14.0442 0.5ZM12.4427 9.64015C12.7168 9.91959 13.3117 10.3885 13.2037 10.8659C13.1042 11.3041 12.4501 11.1443 11.815 11.1697C11.0899 11.2004 10.6602 11.2163 10.2241 10.8659C10.0187 10.6997 9.89803 10.5028 9.70115 10.2827C9.52226 10.0837 9.2968 9.72694 8.98984 9.7407C8.43836 9.76822 8.6109 10.5367 8.41507 11.0607C5.34966 11.5433 4.11862 9.64967 3.0326 7.81212C2.50653 6.92192 1.74652 5.01027 1.74652 5.01027L3.91433 5.00286C3.91433 5.00286 4.60977 6.26777 4.79395 6.59378C4.9506 6.87111 5.12314 7.09128 5.30097 7.33897C5.45022 7.54432 5.68626 7.94655 5.94454 7.91373C6.36476 7.85975 6.44097 6.22966 6.18058 5.68347C6.07685 5.46225 5.8281 5.38498 5.57088 5.30982C5.65768 4.76152 8.00226 4.6472 8.3812 5.07272C8.93162 5.69088 8.00014 7.412 8.75379 7.91373C9.81229 7.35908 10.7163 5.03673 10.7163 5.03673L13.2545 5.05261C13.2545 5.05261 12.8576 6.30799 12.4416 6.86476C12.1992 7.19078 11.3948 7.91691 11.4265 8.45568C11.4519 8.88226 12.1061 9.29719 12.4427 9.64015Z"/>

  <use href="#icon" x="0" y="0" fill="#8293B4"/>
  <use href="#icon" x="0" y="16" fill="#1E3685"/>
  <use href="#icon" x="0" y="32" fill="#FFF"/>
  <use href="#icon" x="0" y="48" fill="#000"/>
</svg>
