<svg width="110" height="132" viewBox="0 0 110 132" fill="none" xmlns="http://www.w3.org/2000/svg">
<path d="M0.177399 110.549C0 119.417 5.27876 123.31 14.1684 123.31H42.4422C49.0158 123.31 54.4902 128.671 54.8616 132C54.6676 128.752 61.1616 122.938 67.3638 123.31H96.8346C105.825 123.31 109.902 119.417 109.902 110.549V110.273H110V0H0V110.273H0.177399V110.549Z" fill="#F0F5FF"/>
<path fill-rule="evenodd" clip-rule="evenodd" d="M10.2929 50.0784C11.4393 49.3602 13.2752 49.1881 15.0764 49.3073C12.2146 48.3426 10.2269 46.1535 10.0917 44.2241C11.6504 43.7773 13.2257 43.9974 14.5914 44.3168C13.1383 43.2511 10.8471 41.3218 11.1144 38.4956C12.4801 38.1646 14.9725 39.1111 16.0627 39.5645C12.6632 37.66 11.4541 33.2238 13.2471 30.6756C14.2879 31.2812 19.0862 36.2154 19.8549 36.7615C17.412 33.9171 16.2458 31.8984 15.5547 29.9674C14.8042 27.8758 14.73 24.2488 17.2883 23.0045C18.4908 25.8075 22.7612 32.9739 25.1595 35.9292C25.3773 35.719 25.595 35.4328 25.9001 35.3484C26.4857 37.1801 28.1945 39.5926 29.7038 40.7211C29.8237 40.3736 29.9902 40.0441 30.1986 39.7416C31.8085 42.1806 36.013 45.4916 37.3754 47.5186C38.4064 49.0491 38.4476 50.4556 36.9697 51.8737C36.3825 52.4379 35.2311 53.5168 36.2208 54.9646C37.8076 57.2812 41.3342 57.1985 42.3601 55.2029C40.1201 54.9464 39.434 52.1682 40.841 50.5566C41.4348 51.6437 42.7147 52.1318 44.0178 51.5974C44.6946 51.3381 45.3078 50.9357 45.8157 50.4176C44.0013 51.0348 42.4245 49.9361 42.6356 48.0613C44.0954 49.3337 45.5964 48.1093 45.885 47.785C46.8384 46.7045 47.0875 45.48 46.7097 43.6251C46.3799 42.0052 44.7304 39.4338 43.6088 38.57C43.5227 38.7282 43.3876 38.8539 43.2238 38.928C43.0601 39.002 42.8767 39.0204 42.7016 38.9804C42.3568 38.9159 41.8125 38.6081 41.4579 38.4956C40.9813 38.3523 40.4802 38.3099 39.9864 38.3712C39.4926 38.4324 39.0169 38.5959 38.5894 38.8513C37.3227 39.6323 37.4348 40.4647 37.4513 41.1315C35.5181 40.0113 36.2175 38.2308 38.7132 37.5276C36.9812 37.5491 35.5792 39.0863 35.2394 39.3279C34.2943 39.9898 32.9301 39.8408 32.1302 39.4669C30.6094 38.7488 30.2597 36.97 30.6786 36.5546C30.7618 36.9073 30.9534 37.2249 31.2263 37.4624C31.4992 37.7 31.8396 37.8455 32.1994 37.8784C33.5273 38.0439 34.7907 37.473 35.792 37.051C36.7941 36.6598 37.8642 36.4741 38.9391 36.505C37.2286 35.5271 34.5268 35.6363 33.58 37.1205C33.0225 36.6506 32.6448 36.2221 32.4749 35.2491C32.0279 32.6992 33.9809 31.3672 36.1384 31.3672C36.1153 30.755 36.5474 30.4456 37.1049 30.6044C37.0949 30.5024 37.1101 30.3995 37.1492 30.3048C37.1883 30.2101 37.2502 30.1266 37.3293 30.0617L37.1775 30.0501C35.0233 29.8846 32.94 29.1863 31.853 28.0396C29.9083 25.9862 32.9829 23.3404 31.8877 21.2803C30.8568 21.7949 30.0733 22.3542 28.5756 22.5842C28.4368 22.984 28.3315 23.3946 28.2605 23.8119C27.7871 26.1517 30.0749 26.5157 29.5042 29.0109C29.2502 30.1229 28.3925 30.4687 28.122 31.7842C28.0989 31.7842 27.9917 32.7621 28.8164 33.5481C26.9393 33.5679 25.9694 32.0241 26.5682 30.5283C26.804 29.9425 27.4556 29.3485 27.4308 28.6635C26.4857 29.969 25.6494 29.8697 24.183 29.4263C23.5233 29.2244 23.4556 30.156 23.8531 30.8791C23.4912 30.6779 23.1867 30.387 22.9687 30.0342C22.7507 29.6814 22.6264 29.2784 22.6078 28.8637C22.6227 27.8312 23.3979 27.3745 24.1698 27.5399C24.6168 27.6392 25.5092 28.2018 25.5785 27.3364C25.6956 25.872 23.4259 25.9514 23.901 23.5687C24.1484 22.3277 25.468 21.727 27.4886 21.4375C27.8712 21.1214 28.2047 20.75 28.4782 20.3355C29.6675 18.4193 30.8221 17.9444 31.5149 18.3267C32.3396 18.7834 32.7421 19.1424 33.4497 19.5065C33.966 19.7696 34.5648 19.9069 34.9013 20.3338C35.7755 21.4557 34.9722 23.1799 34.4757 24.2372C34.1804 24.8627 33.4365 26.3122 33.745 27.3281C34.131 28.5907 36.2192 29.3833 37.481 29.6679C37.5453 29.6827 37.6196 29.696 37.7004 29.7109V29.2145C37.3219 28.524 36.9982 27.8048 36.7322 27.0634C35.9074 24.8081 37.1511 23.8483 39.0562 23.438C39.1735 23.3582 39.308 23.3079 39.4487 23.2912C39.5894 23.2744 39.7319 23.2919 39.8645 23.342L39.909 23.3552L39.9552 23.6862L40.2076 23.6514L40.1828 23.1947H40.2422C40.0701 23.0214 39.9679 22.7905 39.9551 22.5462C39.9423 22.3019 40.0199 22.0614 40.1729 21.871H39.8793L39.9865 21.7502C40.0608 21.6675 40.1812 21.5351 40.29 21.3961C40.343 21.3296 40.3921 21.26 40.4368 21.1876C40.3647 21.2319 40.2953 21.2805 40.229 21.3332C40.0905 21.4424 39.9585 21.5632 39.876 21.6377L39.7556 21.7469V19.6322L39.876 19.7398C39.9585 19.8142 40.0905 19.9367 40.229 20.0442C40.2949 20.0979 40.3643 20.1472 40.4368 20.1915C40.3927 20.1191 40.3442 20.0495 40.2917 19.983C40.1828 19.8457 40.0624 19.7133 39.9882 19.6289L39.881 19.5081H41.9906L41.8834 19.6289C41.8092 19.7133 41.6871 19.8457 41.5799 19.983C41.5268 20.0494 41.4777 20.119 41.4331 20.1915C41.5056 20.1478 41.5751 20.0991 41.641 20.0459C41.7779 19.9367 41.9098 19.8159 41.9939 19.7414L42.1143 19.6339V21.7502L41.9939 21.6427C41.9098 21.5682 41.7779 21.4457 41.641 21.3382C41.5751 21.2845 41.5056 21.2353 41.4331 21.1909C41.4767 21.2637 41.5252 21.3333 41.5783 21.3994C41.6871 21.5384 41.8076 21.6691 41.8818 21.7535L41.989 21.8743H41.697C41.8503 22.0646 41.9282 22.3049 41.9157 22.5492C41.9032 22.7935 41.8013 23.0245 41.6294 23.1981H41.6739L41.6492 23.6547L41.9016 23.6895L41.9478 23.3586L41.9923 23.3453C42.1245 23.2952 42.2669 23.2778 42.4073 23.2945C42.5477 23.3112 42.682 23.3615 42.7989 23.4413C44.7057 23.8517 45.9576 24.8114 45.123 27.0667C44.8578 27.8084 44.534 28.5277 44.1547 29.2178V29.5305C46.0401 28.9249 49.4907 26.835 50.3913 25.5593C50.4738 25.4489 50.5619 25.3429 50.6553 25.2416L50.6421 23.8649C49.9377 22.7745 49.3423 21.3713 48.8903 20.1468C47.6813 16.8788 49.4693 15.4988 52.2866 14.8965C52.4482 14.7822 52.6354 14.7097 52.8317 14.6855C53.0279 14.6612 53.2271 14.686 53.4115 14.7575L53.4857 15.2903L54.068 15.2076L54.0317 14.559C54.1472 14.5739 54.256 14.5838 54.3616 14.5937C54.1681 14.4874 54.0034 14.3353 53.8818 14.1506C53.7601 13.966 53.6853 13.7543 53.6637 13.5341C53.642 13.3138 53.6743 13.0916 53.7577 12.8867C53.8411 12.6818 53.9731 12.5004 54.1422 12.3582H53.6886C53.9113 12.1084 54.4127 11.5673 54.4853 11.2397C54.1554 11.3125 53.6193 11.8172 53.3703 12.0405V9.38808C53.6193 9.61312 54.1587 10.1161 54.4837 10.1873C54.4127 9.85635 53.9097 9.32024 53.687 9.06873H56.3344C56.1133 9.31858 55.6102 9.86297 55.5377 10.1873C55.8676 10.1145 56.4053 9.60981 56.6544 9.38642V12.0455C56.4053 11.8221 55.8626 11.3174 55.5393 11.2463C55.6119 11.5772 56.115 12.115 56.3377 12.3649H55.8808C56.0501 12.5072 56.1822 12.6889 56.2655 12.8941C56.3489 13.0994 56.381 13.322 56.359 13.5425C56.3371 13.763 56.2617 13.9748 56.1396 14.1595C56.0174 14.3441 55.8521 14.496 55.6581 14.602C55.7702 14.5921 55.8874 14.5805 56.0111 14.5656L55.9748 15.2142L56.5587 15.2969L56.6329 14.7641C56.8171 14.6926 57.016 14.6679 57.212 14.6921C57.4079 14.7164 57.5949 14.7889 57.7562 14.9031C60.5735 15.5054 62.3615 16.8888 61.1541 20.1534C60.7005 21.3779 60.105 22.7811 59.4024 23.8715L59.3875 25.273C59.4485 25.3409 59.5277 25.4385 59.6283 25.5659C60.5289 26.8417 63.9796 28.9315 65.865 29.5371V29.2244C65.487 28.5337 65.1633 27.8145 64.8967 27.0733C64.0637 24.818 65.3157 23.8583 67.2208 23.4479C67.338 23.3681 67.4726 23.3178 67.6133 23.3011C67.7539 23.2844 67.8965 23.3018 68.029 23.3519L68.0719 23.3652L68.1181 23.6961L68.3721 23.6614L68.3474 23.2047H68.3919C68.2201 23.0311 68.1181 22.8001 68.1057 22.5558C68.0932 22.3115 68.171 22.0712 68.3243 21.8809H68.0307L68.1396 21.7601C68.2138 21.6757 68.3342 21.545 68.4414 21.406C68.495 21.3399 68.544 21.2703 68.5882 21.1975C68.5157 21.2419 68.4463 21.2911 68.3804 21.3448C68.2418 21.4524 68.1099 21.5748 68.0274 21.6493L67.9053 21.7568V19.6322L68.0274 19.7398C68.1099 19.8142 68.2418 19.935 68.3804 20.0442C68.4463 20.0975 68.5157 20.1461 68.5882 20.1898C68.543 20.1178 68.494 20.0482 68.4414 19.9814C68.3325 19.844 68.2121 19.7116 68.1379 19.6272L68.029 19.5065H70.1338L70.0265 19.6272C69.9523 19.7116 69.8319 19.844 69.723 19.9814C69.67 20.0475 69.6215 20.1171 69.5779 20.1898C69.6496 20.1451 69.7184 20.0959 69.7841 20.0426C69.9226 19.935 70.0546 19.8126 70.1371 19.7381L70.2591 19.6306V21.7502L70.1371 21.641C70.0546 21.5665 69.9226 21.4457 69.7857 21.3365C69.7194 21.2839 69.65 21.2352 69.5779 21.1909C69.6221 21.2633 69.6705 21.3329 69.723 21.3994C69.8319 21.5384 69.9523 21.6708 70.0265 21.7535L70.1354 21.8743H69.8402C69.9932 22.0648 70.0708 22.3052 70.058 22.5495C70.0452 22.7938 69.943 23.0247 69.7709 23.1981H69.8303L69.8055 23.6547L70.0595 23.6895L70.1057 23.3586L70.1503 23.3453C70.2825 23.2952 70.4248 23.2778 70.5652 23.2945C70.7056 23.3112 70.8399 23.3615 70.9568 23.4413C72.862 23.8517 74.1156 24.8114 73.2809 27.0667C73.0155 27.808 72.6923 28.5273 72.3144 29.2178V29.7142C72.3952 29.6993 72.4694 29.6861 72.5354 29.6712C73.8038 29.3866 75.8854 28.594 76.2698 27.3314C76.5799 26.3155 75.836 24.866 75.539 24.2405C75.0442 23.1832 74.2393 21.459 75.1151 20.3371C75.445 19.9069 76.0504 19.7696 76.5667 19.5098C77.2743 19.1457 77.6768 18.7867 78.5015 18.33C79.1926 17.9477 80.3472 18.4226 81.5414 20.3404C81.8145 20.7554 82.1481 21.1269 82.5311 21.4424C84.5517 21.732 85.8713 22.3327 86.1187 23.5737C86.5937 25.9564 84.3241 25.877 84.4412 27.3414C84.5105 28.2068 85.4045 27.6442 85.8515 27.5449C86.6218 27.3794 87.397 27.8345 87.4135 28.8686C87.3925 29.2827 87.2663 29.6844 87.0469 30.0357C86.8275 30.3871 86.5222 30.6762 86.1599 30.8758C86.5525 30.1527 86.4898 29.2211 85.83 29.423C84.3653 29.8664 83.5208 29.9657 82.5823 28.6602C82.5592 29.3452 83.2107 29.9392 83.4449 30.525C84.0453 32.0142 83.0738 33.5646 81.1984 33.5448C82.0231 32.7588 81.9159 31.7809 81.8911 31.7809C81.6223 30.4654 80.7629 30.1262 80.5089 29.0076C79.9398 26.5124 82.226 26.1483 81.7542 23.8086C81.6835 23.3911 81.5775 22.9804 81.4375 22.5809C79.953 22.3509 79.158 21.7916 78.1254 21.277C77.0318 23.337 80.1048 25.9829 78.16 28.0363C77.0747 29.183 74.9914 29.8747 72.8372 30.0468L72.6855 30.0584C72.7642 30.1235 72.8258 30.2071 72.8646 30.3017C72.9035 30.3964 72.9184 30.4992 72.9082 30.6011C73.4657 30.4356 73.8978 30.7517 73.8764 31.3639C76.0339 31.3639 77.9852 32.6877 77.5382 35.2458C77.3733 36.2187 76.9922 36.6473 76.4331 37.1172C75.4863 35.628 72.7844 35.5238 71.074 36.5017C72.1489 36.4708 73.219 36.6565 74.2211 37.0477C75.224 37.4746 76.4875 38.0405 77.8153 37.8751C78.175 37.8423 78.5153 37.6968 78.7879 37.4592C79.0606 37.2217 79.2518 36.904 79.3345 36.5513C79.7551 36.9667 79.4037 38.7454 77.8846 39.4636C77.0895 39.8375 75.7188 39.9815 74.7737 39.3246C74.429 39.083 73.0335 37.5458 71.3016 37.5243C73.7956 38.2275 74.4966 40.0063 72.5618 41.1282C72.5799 40.4663 72.6904 39.629 71.4253 38.848C70.9975 38.5926 70.5216 38.4291 70.0275 38.3678C69.5334 38.3066 69.0321 38.349 68.5552 38.4923C68.2006 38.6048 67.6579 38.9126 67.3115 38.9771C67.1364 39.0157 66.9536 38.9967 66.7901 38.9228C66.6267 38.8488 66.4914 38.724 66.4043 38.5667C65.2761 39.4305 63.6316 42.0019 63.3033 43.6218C62.9289 45.4767 63.178 46.7011 64.1281 47.7817C64.4151 48.1126 65.9177 49.3304 67.3759 48.058C67.5886 49.9327 66.0052 51.0364 64.1973 50.4143C64.7029 50.9338 65.3138 51.3384 65.9887 51.6007C67.2934 52.1351 68.5734 51.647 69.1672 50.5599C70.5742 52.1715 69.888 54.9497 67.648 55.2062C68.6723 57.2018 72.1989 57.2895 73.7857 54.9679C74.7753 53.5201 73.6207 52.4412 73.0368 51.877C71.5523 50.4589 71.6001 49.0525 72.631 47.5219C73.9952 45.4965 78.198 42.1855 79.8095 39.7449C80.018 40.0474 80.1845 40.3769 80.3043 40.7244C81.812 39.5959 83.5224 37.1834 84.0981 35.3517C84.4049 35.4295 84.6226 35.7223 84.8404 35.9325C87.2387 32.9772 91.5091 25.8108 92.7116 23.0078C95.2732 24.2521 95.194 27.8791 94.4452 29.9707C93.7524 31.9017 92.5879 33.9204 90.1434 36.7648C90.912 36.2187 95.7103 31.2845 96.7511 30.6789C98.5441 33.2271 97.3367 37.6633 93.9372 39.5678C95.0307 39.1144 97.5247 38.1729 98.8855 38.4989C99.1544 41.3251 96.8616 43.2545 95.4085 44.3201C96.7792 44.0007 98.3511 43.7806 99.9082 44.2274C99.7746 46.1568 97.787 48.3459 94.9252 49.3106C96.7181 49.1914 98.554 49.3635 99.7086 50.0817C99.4497 52.0673 97.2344 53.8246 94.4584 54.2266C96.3041 54.4269 97.9602 55.2542 98.775 56.3479C97.7969 57.6403 96.3124 58.6728 94.0592 58.6248C94.6792 58.8514 95.2458 59.2041 95.7235 59.6606C95.7495 59.6143 95.7928 59.5803 95.8439 59.566C95.8949 59.5517 95.9495 59.5584 95.9957 59.5845C96.0418 59.6106 96.0758 59.654 96.09 59.7052C96.1042 59.7565 96.0976 59.8112 96.0716 59.8575C96.0635 59.8764 96.0524 59.8937 96.0386 59.9088C96.1382 59.9663 96.2242 60.0449 96.2903 60.1393C96.3564 60.2336 96.4011 60.3413 96.4212 60.4549C96.6352 60.752 96.8099 61.0757 96.9408 61.4179L96.7924 61.5321C96.8034 61.7356 96.7453 61.9369 96.6274 62.1029C96.7374 62.2253 96.8096 62.377 96.8353 62.5398L98.1548 61.9672C98.2126 62.1939 98.3 63.8205 97.3812 64.7802C96.8864 65.3014 96.3915 65.227 96.5252 65.3858L95.1066 66.2975C94.8246 66.8452 94.3149 66.8105 93.952 66.655C93.9545 66.693 93.9545 66.7311 93.952 66.7691C93.9522 67.0437 93.8616 67.3105 93.6944 67.5279C93.5273 67.7452 93.293 67.9009 93.0283 67.9704C93.1421 68.4553 92.9722 68.7796 92.3438 68.9632L86.9517 82.0352C87.1892 82.6359 86.9616 83.1836 86.4667 83.4003C86.5487 83.4758 86.6119 83.5693 86.6514 83.6736C86.691 83.7779 86.7057 83.89 86.6944 84.001C86.4832 83.8769 86.188 83.8355 86.0346 84.2492C85.9175 84.5619 86.4882 85.5316 85.642 86.2348C85.691 86.5363 85.6344 86.8456 85.482 87.1101C85.3296 87.3746 85.0906 87.578 84.8057 87.686C84.7777 88.0169 84.5336 89.0279 84.4643 89.4068C84.8602 89.9132 85.7476 90.7521 85.6189 91.6539C85.5315 92.2694 85.2676 92.5011 84.748 92.6715C84.9789 93.8298 84.3191 94.3626 83.3097 94.404C83.3509 95.2727 82.5146 95.5424 82 95.6036C81.6401 95.9358 81.2247 96.2019 80.7728 96.3896C81.2676 97.0316 80.8965 97.8176 79.9893 98.0856C79.9292 98.2937 79.8092 98.4794 79.6443 98.6192C79.4793 98.7591 79.2768 98.8469 79.0623 98.8716C78.951 99.073 78.7684 99.2252 78.5507 99.2981C78.3329 99.371 78.0958 99.3594 77.8862 99.2654C77.6984 99.1269 77.5675 98.9243 77.5183 98.6957C77.4691 98.4671 77.5049 98.2283 77.619 98.0244C77.4128 97.7762 77.5168 97.3179 77.6636 96.9886C77.3172 96.3962 77.6091 95.7012 78.0165 95.4994C77.9621 95.1817 78.1271 94.7068 78.2178 94.3775C77.5168 93.9489 76.5683 93.3566 76.2384 93.1265C74.3795 91.8028 72.3754 90.6826 69.9705 90.4791C69.2115 90.4189 68.4494 90.4095 67.6893 90.4509C66.6996 90.5337 65.4245 90.8232 64.6064 90.216C64.4958 90.1453 64.4072 90.0448 64.3509 89.926C64.2946 89.8072 64.2728 89.6748 64.2881 89.5442C64.3837 88.9535 65.0435 88.4421 65.2481 87.906C65.3074 87.7505 65.413 87.5139 65.5037 87.2938C64.9488 87.4026 64.3748 87.3562 63.8444 87.1598C63.4139 86.9744 62.4555 86.2282 62.4621 85.1493C63.2654 85.5266 65.1936 86.0545 65.4311 84.0688C65.6406 82.3231 64.0951 80.8769 61.7693 81.4759C60.1017 81.9062 57.7529 85.4174 59.9038 86.8834C60.9858 87.6214 62.5858 88.3164 62.3912 90.211C61.7001 89.3357 60.7533 88.9286 59.5244 89.0395C61.3124 90.3632 62.7079 90.4956 64.5124 91.5215C66.1536 92.4581 67.3808 94.0416 68.6278 94.0929C69.629 94.1343 70.1635 92.9627 69.2497 92.0825C70.1981 91.9021 71.4517 92.5971 71.8063 93.6064C72.288 94.9715 71.8871 95.9925 71.0459 96.5187C72.2005 97.1358 73.0698 98.3702 72.636 100.123C72.2913 101.512 70.8348 101.524 71.3923 103.311C71.0249 103.219 70.6893 103.029 70.4214 102.761C70.1535 102.492 69.9634 102.156 69.8715 101.787C69.7445 101.291 69.6752 100.662 69.3882 100.401C69.4723 101.512 68.8835 103.118 67.3808 103.827C66.3911 104.296 64.8175 104.521 63.587 103.243C63.1268 104.691 61.4296 105.917 59.7174 105.876C58.9552 105.833 58.2168 105.594 57.5731 105.183C57.1508 106.213 56.1034 107.261 55.0164 107.817C53.9311 107.261 52.882 106.213 52.4598 105.183C51.8164 105.595 51.0778 105.834 50.3155 105.876C48.6017 105.917 46.906 104.691 46.4458 103.243C45.2104 104.521 43.6418 104.296 42.6521 103.827C41.1494 103.118 40.5589 101.511 40.643 100.401C40.3577 100.662 40.2884 101.284 40.1597 101.787C40.0681 102.156 39.8783 102.492 39.6107 102.76C39.3431 103.029 39.0078 103.219 38.6406 103.311C39.1981 101.524 37.7416 101.512 37.3969 100.123C36.9631 98.3702 37.8307 97.1358 38.987 96.5187C38.1457 95.9925 37.7449 94.9715 38.2266 93.6064C38.5795 92.5971 39.8331 91.9021 40.7816 92.0825C39.8678 92.9627 40.4022 94.1343 41.4034 94.0929C42.6438 94.0416 43.8776 92.4581 45.5023 91.5265C47.3069 90.4956 48.7023 90.3682 50.4903 89.0445C49.2598 88.9336 48.3147 89.3406 47.6219 90.216C47.4273 88.3214 49.0289 87.6264 50.1109 86.8884C52.2552 85.4224 49.913 81.9111 48.2454 81.4809C45.9197 80.8819 44.3725 82.3281 44.5836 84.0738C44.8228 86.0594 46.751 85.5316 47.5526 85.1543C47.5609 86.2331 46.6025 86.9744 46.1704 87.1647C45.4769 87.428 44.7121 87.4315 44.0162 87.1747C44.031 87.3749 44.0442 87.5387 44.0525 87.6065C44.2405 89.2893 45.1081 89.4598 44.7881 90.1399C44.3543 90.671 41.5074 90.5717 40.6645 90.6991C39.3235 90.8994 38.1441 91.4007 36.8278 91.6721C35.3878 91.9683 33.8242 91.9766 32.5013 92.5143C31.6518 92.8602 30.6869 93.57 29.8869 94.0135C28.6201 94.1889 28.8048 94.7051 28.0444 94.7283C27.284 94.7515 27.0003 94.0962 26.1047 93.8364C25.4696 93.6544 24.7076 93.9258 24.0626 93.7537C23.5859 93.6246 23.4127 93.1381 23.0004 92.885C22.4577 92.554 21.7418 92.554 21.2388 92.1304C21.0045 91.9335 20.9451 91.5496 20.9666 91.2501C19.9662 90.5295 19.214 89.5147 18.814 88.3462C18.6863 88.3224 18.5707 88.2553 18.4863 88.1562C18.4019 88.0572 18.354 87.932 18.3505 87.8018C18.3524 87.7646 18.3568 87.7275 18.3637 87.6909C18.2315 87.5934 18.1239 87.4661 18.0497 87.3192C17.9755 87.1724 17.9367 87.01 17.9365 86.8454C17.9439 86.6731 17.9861 86.5042 18.0607 86.3489C18.1353 86.1935 18.2406 86.0551 18.3703 85.9419C18.3613 85.9017 18.3558 85.8607 18.3539 85.8195C18.3573 85.7295 18.3803 85.6414 18.4213 85.5614C18.4624 85.4813 18.5204 85.4113 18.5914 85.3562C18.7913 84.2553 19.2969 83.2334 20.05 82.408C20.8031 81.5825 21.7732 80.987 22.8486 80.69C22.8605 80.6665 22.8689 80.6414 22.8734 80.6155L22.9064 80.5775C22.944 80.5176 22.9914 80.4644 23.0466 80.4203C23.3237 80.1075 23.7064 79.6508 23.7723 79.353C23.4045 79.4341 22.7958 80.0033 22.5121 80.2564V77.2548C22.7958 77.508 23.4028 78.0822 23.7707 78.1567C23.6898 77.7877 23.1224 77.1771 22.8701 76.8941H25.8622C25.6115 77.1754 25.0375 77.7893 24.9632 78.1567C25.3278 78.0756 25.9414 77.5047 26.2218 77.2532V80.2548C25.9414 80.0016 25.3294 79.4274 24.9632 79.3513C25.0457 79.7187 25.6131 80.3326 25.8638 80.6155L25.7649 80.637C26.8813 80.9011 27.8973 81.4843 28.6899 82.3161C29.4824 83.1478 30.0174 84.1924 30.23 85.3231C30.3137 85.3767 30.3832 85.4499 30.4326 85.5363C30.482 85.6227 30.5098 85.7199 30.5137 85.8195C30.5125 85.8602 30.5069 85.9007 30.4972 85.9403C30.6297 86.0528 30.7368 86.1923 30.8116 86.3494C30.8864 86.5066 30.9271 86.6779 30.931 86.852C30.9285 87.0151 30.8887 87.1754 30.8146 87.3206C30.7406 87.4657 30.6342 87.5919 30.5038 87.6893C30.5121 87.7263 30.517 87.7639 30.5186 87.8018C30.5146 87.94 30.4607 88.072 30.367 88.1733C30.2732 88.2747 30.146 88.3384 30.0089 88.3528C29.9109 88.6373 29.7912 88.9139 29.651 89.1801C29.816 89.986 30.8469 90.5039 31.0761 90.5271C32.9005 90.7719 34.959 89.9926 36.7882 89.2993C37.6542 88.9683 38.7297 88.5927 39.2921 87.7919C39.481 87.4568 39.6079 87.0901 39.6666 86.7097C39.6526 86.5798 39.63 86.451 39.5989 86.3242C39.3358 86.6697 38.9881 86.9411 38.5894 87.1118C38.5651 86.8664 38.5096 86.625 38.4245 86.3937C38.1935 86.7296 37.878 86.9983 37.5102 87.1727C37.1423 87.347 36.7351 87.4208 36.3297 87.3865C36.8691 86.9198 37.128 85.7037 36.8542 84.6645C36.1021 85.9055 33.2617 86.2034 32.7405 83.9431C33.8093 84.3816 34.4922 83.8686 34.6934 83.2812C34.987 82.4175 33.9363 80.1836 34.9013 78.4992C35.6402 77.2052 36.493 76.4407 38.4938 76.1429C38.3424 75.8908 38.2484 75.6083 38.2183 75.3156C40.0492 76.0122 41.6591 75.5207 42.3634 74.0001C41.922 74.184 41.4454 74.2676 40.968 74.245C42.5745 72.8898 42.4921 69.1668 41.3276 67.206C41.184 67.1299 41.0966 67.0289 40.9663 66.9644C40.5919 67.7189 39.5445 67.7173 39.0084 68.2765C38.8422 68.1191 38.6585 67.9814 38.4608 67.8662C38.4608 67.8662 38.4229 70.9191 38.2233 72.1502C37.989 73.5914 36.648 73.4193 35.9322 74.053C35.1074 73.1959 33.6229 73.2042 33.8373 71.6653C34.0633 70.0421 34.3784 68.6191 34.4378 67.5965C33.9561 68.5247 33.0786 72.1088 32.6893 73.1678C32.1285 74.6951 30.6671 74.2533 29.8341 74.791C29.2766 73.7304 27.9323 73.4441 28.4684 71.8821C28.6152 71.4552 30.8436 66.6847 31.152 65.816C30.3685 66.9528 28.2556 71.111 27.543 72.2693C26.7974 73.4706 25.4498 72.9312 24.4668 73.2422C24.2787 72.3206 22.9525 71.346 23.8977 69.8253C25.1529 67.805 27.9438 64.2772 28.1418 63.8122C27.5348 64.3086 23.1538 69.8038 22.7958 70.1232C21.7897 71.02 20.2788 70.3466 19.4227 70.33C19.4227 69.3058 18.598 68.1591 19.7691 67.0206C20.8181 66.0096 23.2148 64.2606 23.7509 63.703C22.1212 64.7785 20.2227 66.5805 19.0631 66.8717C17.0739 67.3681 16.3794 66.5722 15.5992 66.2678C16.2491 64.4377 15.4343 63.5756 19.6751 61.7902C15.9588 63.1139 14.349 62.4521 13.0525 61.4262C13.5622 60.0776 14.857 58.9971 15.9341 58.6331C13.6826 58.681 12.1981 57.6403 11.2183 56.3562C12.043 55.2625 13.6925 54.4351 15.5349 54.2349C12.7589 53.8262 10.5502 52.064 10.2929 50.0784ZM93.0596 62.4719C93.0687 62.5063 93.0826 62.5391 93.1009 62.5695C93.1586 62.5695 93.2163 62.5695 93.2658 62.5613L93.312 62.4984C93.2361 62.4885 93.1487 62.4885 93.0596 62.4719ZM91.176 62.1575C91.176 62.1244 91.176 62.093 91.176 62.0616C90.9071 61.9805 90.6267 61.8961 90.3331 61.7852C90.6415 61.9126 90.9203 62.0351 91.176 62.1575ZM95.5998 63.6004C95.6333 63.6473 95.6696 63.6921 95.7087 63.7344C96.0386 63.6699 96.0254 63.3125 95.966 63.013C95.8319 62.9997 95.7074 62.9372 95.6163 62.8376C95.5932 62.8376 95.5371 62.8988 95.5371 62.8988L95.7268 62.9849C95.6707 63.1934 95.6361 63.3952 95.5998 63.5988V63.6004ZM94.5936 65.7631L95.1182 65.4537C95.0437 65.3669 94.9416 65.3086 94.8291 65.2887C94.7167 65.2688 94.6009 65.2885 94.5013 65.3445C94.4783 65.4902 94.5113 65.6392 94.5936 65.7614V65.7631ZM91.5454 67.3383C91.5553 67.292 91.5652 67.244 91.5735 67.1927C91.5497 67.1227 91.532 67.0507 91.5207 66.9776C91.3298 66.9503 91.1404 66.9133 90.9533 66.8668C89.7986 66.5755 87.8952 64.7736 86.2672 63.698C86.8032 64.2557 89.1982 66.0047 90.249 67.0157C91.2485 67.9787 90.7949 68.9533 90.6399 69.8535L91.2733 68.5297C91.2002 68.4377 91.1488 68.3304 91.1228 68.2158C91.0968 68.1011 91.0968 67.9821 91.123 67.8675C91.1491 67.7528 91.2007 67.6456 91.2738 67.5537C91.347 67.4618 91.4398 67.3876 91.5454 67.3367V67.3383ZM75.9745 89.9429C76.8537 90.0836 78.4487 89.5508 78.8198 88.3164C79.191 87.082 80.2186 86.7031 80.9641 87.451C81.2033 87.3054 81.779 87.1912 81.9967 87.5586C82.1339 87.2555 82.3182 86.9763 82.5427 86.7312C82.3447 86.0892 82.5295 85.3446 83.087 85.0964C83.1579 83.8769 83.8903 83.8554 84.1476 83.4219C84.301 83.1637 84.2746 82.8725 83.9117 82.7798C83.9849 82.7029 84.0726 82.6413 84.1697 82.5986C84.2669 82.556 84.3715 82.5332 84.4775 82.5316C84.3934 82.2505 84.423 81.9475 84.5601 81.6883C84.6972 81.429 84.9307 81.2344 85.2098 81.1467L90.4057 70.3217C89.5298 70.4127 88.1541 70.9389 87.2156 70.1033C86.8593 69.784 82.4783 64.2921 81.8697 63.7924C82.0676 64.2573 84.8602 67.7851 86.1154 69.8055C87.0605 71.3261 85.7327 72.3007 85.5463 73.2224C84.5567 72.903 83.214 73.4507 82.4701 72.2494C81.7575 71.0912 79.6429 66.9363 78.8594 65.7962C79.1695 66.6649 81.3979 71.4353 81.5447 71.8622C82.0792 73.4243 80.7365 73.7105 80.1773 74.7712C79.3526 74.2334 77.8829 74.6752 77.3221 73.1479C76.9345 72.0889 76.057 68.5049 75.5737 67.5766C75.6331 68.5992 75.9481 70.0222 76.1741 71.6455C76.3885 73.1843 74.909 73.1761 74.0809 74.0332C73.3634 73.3994 72.0224 73.5715 71.7898 72.1303C71.5902 70.8992 71.5506 67.8463 71.5506 67.8463C71.3538 67.962 71.1707 68.0997 71.0047 68.2567C70.4686 67.6974 69.4195 67.6991 69.0451 66.9445C68.9165 67.0091 68.829 67.11 68.6855 67.1861C67.5194 69.1469 67.4369 72.8699 69.0451 74.2251C68.5676 74.2481 68.091 74.1645 67.6497 73.9802C68.3523 75.5009 69.9589 75.9923 71.7948 75.2957C71.7635 75.5884 71.6689 75.8708 71.5177 76.123C73.5201 76.4209 74.3712 77.1854 75.1118 78.4793C76.0768 80.1638 75.0244 82.3976 75.3197 83.2613C75.5209 83.8537 76.2038 84.3667 77.271 83.9232C76.7514 86.1835 73.911 85.8857 73.1572 84.6447C72.8834 85.6838 73.1424 86.9 73.6834 87.3666C73.2777 87.4012 72.8702 87.3276 72.502 87.1532C72.1338 86.9789 71.8181 86.71 71.5869 86.3738C71.5018 86.6052 71.4464 86.8465 71.422 87.0919C71.0236 86.9208 70.676 86.6495 70.4125 86.3043C70.3052 86.7537 70.2962 87.2211 70.3861 87.6744C70.782 87.9209 71.2109 88.1443 71.841 88.4686C72.9065 89.0329 74.8199 89.7543 75.9745 89.9413V89.9429ZM63.8444 100.331C65.1392 100.331 66.0332 99.5368 65.3866 98.4381C65.0056 98.956 64.2914 99.1579 63.7767 99.2224C63.843 99.588 63.8657 99.9601 63.8444 100.331ZM62.7013 96.9472C63.7866 96.8132 63.5706 95.4448 63.2044 94.7713C62.4671 93.4128 59.4271 91.6191 57.8931 89.8073C58.4424 90.7273 59.7273 92.185 60.3673 93.0389C61.3372 94.3378 62.1009 95.2958 62.7095 96.9472H62.7013ZM57.0552 95.4894C57.6919 97.8887 58.1108 101.489 57.9014 103.033C60.0621 101.926 58.8663 97.6074 58.0399 95.7525C56.8853 93.1712 56.0523 90.0191 55.8032 88.0103C55.4222 88.9634 56.7022 94.1293 57.0634 95.4894H57.0552ZM52.1068 103.028C51.8973 101.484 52.3179 97.8838 52.953 95.4845C53.3142 94.1243 54.5942 88.9584 54.2066 88.0119C53.9476 90.0257 53.1229 93.1779 51.9682 95.7592C51.1435 97.6074 49.946 101.926 52.1068 103.028ZM46.2331 99.2224C45.7168 99.1579 45.0042 98.956 44.6215 98.4381C43.9766 99.5368 44.8689 100.324 46.1638 100.331C46.143 99.9601 46.1663 99.5879 46.2331 99.2224ZM46.8054 94.7713C46.4392 95.4448 46.2215 96.8132 47.3085 96.9472C47.9172 95.2925 48.6809 94.3378 49.6441 93.0438C50.2808 92.19 51.5674 90.7273 52.1183 89.8122C50.5827 91.6191 47.5411 93.4128 46.8054 94.7713ZM50.5546 31.5625C50.0384 32.3071 49.4462 32.9143 48.4615 33.232C49.499 34.5028 51.5955 35.3153 53.6952 35.1101C53.417 35.4396 53.0616 35.6947 52.6608 35.8524C52.2601 36.0101 51.8265 36.0655 51.3992 36.0136C53.1047 38.6991 54.6552 41.666 55.0082 45.7431C55.3628 41.666 56.9133 38.6991 58.6172 36.0136C58.189 36.0638 57.755 36.0062 57.3545 35.8462C56.9539 35.6862 56.5994 35.4287 56.3228 35.0969C58.4242 35.302 60.519 34.4896 61.5566 33.2188C60.5669 32.9011 59.978 32.2938 59.4634 31.5492C60.4069 31.996 61.545 32.1284 62.7623 32.0043C61.2778 31.6932 59.0114 30.4737 58.9504 29.413C59.3001 29.8317 62.2493 29.969 63.9219 29.969C61.0254 29.3684 58.0811 27.7004 56.7583 26.3734C56.2222 26.4048 55.6383 26.4214 55.0263 26.4214C54.4144 26.4214 53.8024 26.4048 53.2565 26.3717C51.9369 27.6955 48.991 29.3684 46.0928 29.969C47.7687 29.969 50.7113 29.8317 51.066 29.413C51.005 30.4737 48.7369 31.6932 47.2524 32.0043C48.4714 32.1333 49.6095 32.001 50.5546 31.5542V31.5625Z" fill="#C0C4CC"/>
</svg>
