<svg xmlns="http://www.w3.org/2000/svg" viewBox="-8300 -2174 91.4 46.125"><defs><style>.a{fill:#e30613;}</style></defs><g transform="translate(-8300 -2174.048)"><g transform="translate(0 15.296)"><path d="M8.035,44.669H7.9a.611.611,0,0,1-.208-.035.44.44,0,0,0-.208-.035,1.562,1.562,0,0,0-.278.069c-.139.035-.139.069-.208.069A.782.782,0,0,1,6.75,44.7a.863.863,0,0,0-.278-.035,1.117,1.117,0,0,0-.278.035c-.972.174-1.84.313-2.6.382.035,0,0,0-.1.035l-.278.035q-.677.052-1.042.1C1.056,45.433.5,45.642.5,45.954a.611.611,0,0,0,.035.208.611.611,0,0,1,.035.208.108.108,0,0,1-.035.069c0,.035-.035.035-.035.069a2.429,2.429,0,0,0,.278.417c.208.278.313.451.313.451a2.247,2.247,0,0,0,.1.347c.035.174.069.243.139.243.1,0,.8-.069,1.979-.208v.729c0,.208,0,.521-.035.972,0,.417-.035.729-.035.972V56.2c0,.208,0,.521.035.938,0,.417.035.729.035.972v1.076c0,.938.66,1.389,2.014,1.389.382,0,.59-.1.59-.347,0,0-.035-.1-.1-.278a15.768,15.768,0,0,0,.1-1.632v-3.4c0-.938,0-2.083.035-3.472,0-.313,0-.9.035-1.84.035-.764.035-1.389.035-1.84v-.139c0-.069-.035-.1-.035-.139,0-.174.59-.313,1.736-.382a5.134,5.134,0,0,0,.556-.035c.347-.069.556-.556.556-1.389a1.05,1.05,0,0,0-.313-.625A.582.582,0,0,0,8.035,44.669Z" transform="translate(-0.326 -44.378)"/><path d="M5.035,60.294c-1.806,0-2.188-.868-2.188-1.563V57.655c0-.243,0-.556-.035-.938,0-.417-.035-.729-.035-.938V50.016c0-.208,0-.521.035-.972,0-.417.035-.729.035-.938v-.556c-1.458.174-1.736.208-1.806.208-.139,0-.243-.139-.313-.382a1.481,1.481,0,0,1-.069-.313c-.035-.035-.243-.347-.313-.451-.278-.382-.313-.451-.313-.521s.035-.1.035-.139l-.035-.139A.977.977,0,0,1,0,45.537c0-.417.556-.66,1.806-.868.243-.035.625-.069,1.076-.139L3.16,44.5h.069l.035.069v-.1c.764-.069,1.632-.208,2.6-.382.278-.035.313-.035.313-.035a.863.863,0,0,1,.278.035.611.611,0,0,0,.208.035.537.537,0,0,0,.208-.069.634.634,0,0,1,.556-.035.548.548,0,0,0,.139.035h.139A.959.959,0,0,1,8.4,44.5a1.156,1.156,0,0,1,.347.729c0,.972-.208,1.493-.694,1.563a2.971,2.971,0,0,1-.59.035,4.48,4.48,0,0,0-1.563.243v.208c0,.451,0,1.042-.035,1.84-.035.938-.035,1.528-.035,1.806C5.8,52.343,5.8,53.488,5.8,54.391v3.472a15.181,15.181,0,0,1-.1,1.6c.069.243.1.278.1.313C5.8,59.982,5.729,60.294,5.035,60.294ZM3.195,47.169v.938c0,.208,0,.521-.035.972,0,.417-.035.729-.035.938V55.78c0,.208,0,.521.035.938,0,.417.035.729.035.972v1.076c0,.833.59,1.215,1.84,1.215.278,0,.417-.069.417-.174a1.119,1.119,0,0,1-.069-.208V59.53a15.769,15.769,0,0,0,.1-1.632V54.5c0-.9,0-2.049.035-3.472,0-.278,0-.9.035-1.84.035-.764.035-1.389.035-1.806v-.1c0-.069-.035-.1-.035-.139,0-.278.313-.451,1.91-.556.451-.035.521-.035.556-.035.278-.035.417-.486.417-1.215,0-.1-.035-.243-.278-.521-.208-.278-.347-.313-.417-.313H7.6a.678.678,0,0,1-.243-.035.548.548,0,0,0-.139-.035c-.035,0-.069,0-.208.069a1.761,1.761,0,0,1-.313.069.977.977,0,0,1-.278-.035.916.916,0,0,0-.243-.035,1.3,1.3,0,0,0-.278.035c-.938.174-1.806.313-2.57.382-.035,0-.1.035-.139.035l-.278.035a5.831,5.831,0,0,0-1.042.139c-1.528.139-1.528.417-1.528.417a.974.974,0,0,0,.035.174,1.562,1.562,0,0,1,.069.278.209.209,0,0,1-.035.139c.035.035.069.139.208.313a3.339,3.339,0,0,0,.347.486c0,.035.035.069.1.417a.128.128,0,0,0,.035.1c.174,0,.66-.069,1.91-.208Z" transform="translate(0 -43.961)"/></g><g transform="translate(21.494 15.31)"><path d="M71.459,48.493c0-.382-.035-1.076-.1-2.049a7.7,7.7,0,0,0-.208-1.84.394.394,0,0,0-.278-.1,3.716,3.716,0,0,0-.8.174,2.383,2.383,0,0,0-.764.313,6.388,6.388,0,0,0-.972,2.326c-.278.9-.556,1.771-.8,2.674q-.938,2.865-1.667,4.583c-.278.625-.486.9-.59.9q-.1,0-.1-.208V53.459c0-.8-.035-2.014-.069-3.646s-.069-2.847-.069-3.646a1.281,1.281,0,0,0-.1-.59.5.5,0,0,0-.451-.174c-1.181,0-1.771.313-1.771.972,0,.451,0,1.146-.035,2.049-.035.938-.035,1.6-.035,2.049V53.25c0,.556-.035,1.354-.069,2.431s-.069,1.91-.069,2.431c0,1.6.208,2.361.59,2.361a1.393,1.393,0,0,1,.451.208,1.227,1.227,0,0,0,.66.208,1.4,1.4,0,0,0,1.215-.833,20.848,20.848,0,0,0,1.563-3.507,20.259,20.259,0,0,1,1.285-3.021c.139-.417.243-.764.313-.972.208-.521.347-.8.451-.8.035,0,.069.139.069.417,0,.035,0,.347-.035.9-.1,1.6-.174,2.535-.174,2.847v2.951a4.372,4.372,0,0,0,.069.9.613.613,0,0,0,.66.451,1.019,1.019,0,0,0,.59-.208.923.923,0,0,1,.486-.208c.243,0,.382-.035.451-.139a1.019,1.019,0,0,0,.1-.59,13.693,13.693,0,0,1,.1-1.389,14.226,14.226,0,0,0,.1-1.424c0-.382-.035-.938-.069-1.7-.035-.729-.069-1.319-.069-1.7,0-.521.035-1.25.069-2.257C71.424,49.743,71.459,48.979,71.459,48.493Z" transform="translate(-62.292 -44.326)"/><path d="M63.775,60.806a1.25,1.25,0,0,1-.764-.243c-.278-.174-.347-.208-.347-.208h0c-.521,0-.764-.8-.764-2.535,0-.556.035-1.354.069-2.431.035-1.111.069-1.875.069-2.431V50.181c0-.451,0-1.146.035-2.049s.035-1.6.035-2.049c0-.764.66-1.146,1.945-1.146a.677.677,0,0,1,.625.278,1.559,1.559,0,0,1,.139.66c0,.8.035,2.014.069,3.646.035,1.667.069,2.847.069,3.646v1.7a5.952,5.952,0,0,0,.347-.694q.729-1.719,1.667-4.583l.8-2.674c.625-1.979.9-2.326,1.076-2.431a2.677,2.677,0,0,1,.8-.313A3.749,3.749,0,0,1,70.511,44a.575.575,0,0,1,.417.174c.069.069.139.139.243,1.945.069.972.1,1.667.1,2.049,0,.521-.035,1.285-.069,2.257-.035,1.007-.069,1.771-.069,2.257,0,.382.035.938.069,1.667s.069,1.319.069,1.7a14.111,14.111,0,0,1-.1,1.458,13.693,13.693,0,0,0-.1,1.389,1.088,1.088,0,0,1-.139.694c-.1.139-.313.174-.59.174a.929.929,0,0,0-.382.174,1.4,1.4,0,0,1-.694.243.765.765,0,0,1-.833-.59,3.518,3.518,0,0,1-.069-.972V55.667c0-.313.035-1.215.174-2.847.035-.8.035-.9.035-.9v-.035c-.035.1-.1.243-.174.451s-.174.556-.313.972A19.746,19.746,0,0,0,66.8,56.327a22.743,22.743,0,0,1-1.6,3.542A1.717,1.717,0,0,1,63.775,60.806Zm.278-15.556c-1.6,0-1.6.59-1.6.8,0,.451,0,1.146-.035,2.049s-.035,1.6-.035,2.049v2.778c0,.521-.035,1.319-.069,2.431-.035,1.076-.069,1.875-.069,2.431,0,2.083.347,2.188.417,2.188a1.293,1.293,0,0,1,.556.243.943.943,0,0,0,.59.208,1.19,1.19,0,0,0,1.042-.764,25.467,25.467,0,0,0,1.563-3.472,20.728,20.728,0,0,1,1.319-3.056c.139-.382.243-.729.313-.938.278-.764.451-.9.625-.9.243,0,.243.313.243.59,0,.069-.035.521-.035.938-.1,1.632-.174,2.535-.174,2.847v2.951a3.067,3.067,0,0,0,.069.868.433.433,0,0,0,.486.347.922.922,0,0,0,.486-.174,1.016,1.016,0,0,1,.59-.243c.278,0,.347-.069.347-.069a1.012,1.012,0,0,0,.069-.486,14.225,14.225,0,0,1,.1-1.424,14.224,14.224,0,0,0,.1-1.424c0-.382-.035-.938-.069-1.667-.035-.764-.069-1.319-.069-1.7,0-.521.035-1.25.069-2.257.035-.972.069-1.736.069-2.257,0-.382-.035-1.076-.1-2.014a9.705,9.705,0,0,0-.174-1.771.788.788,0,0,0-.139-.035,5.569,5.569,0,0,0-1.493.451c-.069.035-.313.313-.9,2.257l-.8,2.674c-.625,1.91-1.181,3.472-1.667,4.618-.382.833-.59,1.007-.764,1.007-.069,0-.278-.035-.278-.382V53.167c0-.8-.035-1.979-.069-3.646-.035-1.632-.069-2.847-.069-3.646,0-.313-.035-.451-.069-.486A.578.578,0,0,0,64.053,45.25Z" transform="translate(-61.9 -44)"/></g><g transform="translate(33.473 15.483)"><path d="M107.109,57.521a1.65,1.65,0,0,1,.833.208h0V45.75a.68.68,0,0,0-.382-.59,6.04,6.04,0,0,0-1.181-.451,5.172,5.172,0,0,0-1.215-.208q-.469,0-1.25,2.708c-.278,1.111-.556,2.222-.833,3.3q-.156.677-.417,1.563c-.139.451-.243.694-.312.694a3.86,3.86,0,0,1-.174-.451c-.625-2.639-1.076-4.653-1.354-5.972a.5.5,0,0,0-.313-.417,5.122,5.122,0,0,0-1.285-.208,2.643,2.643,0,0,1-.729-.1c-.417-.1-.625-.139-.59-.139a1.365,1.365,0,0,0-.208.069,1.014,1.014,0,0,1-.313.069q-.312,0-.312,1.771c0,.347,0,.833-.035,1.458-.1,2.014-.139,4.861-.139,8.577,0,.243,0,.521.035.9a11.63,11.63,0,0,0,.139,1.285c.139.313.521.521,1.181.66q1.094.208,1.042.208c.139,0,.243-.1.243-.313a5.681,5.681,0,0,0-.035-.694,5.681,5.681,0,0,1-.035-.694v-.833c0-.59,0-1.458-.035-2.639S99.4,53.25,99.4,52.66V50.542q0-.417.313-.417c.139.764.278,1.319.347,1.7.313,1.389.556,2.4.729,3.09.243.972.347,1.493.347,1.563a1.609,1.609,0,0,0,1.667,1.354c.243,0,.451-.417.66-1.215.139-.556.243-1.042.313-1.493.556-2.465.972-4.1,1.215-4.965a2.424,2.424,0,0,1,.208-.556c.243,0,.347.451.347,1.319q0,1.406-.1,4.167c-.035,1.007-.069,1.875-.1,2.639a1.9,1.9,0,0,1,1.007-.278h.764Z" transform="translate(-96.726 -44.5)"/><path d="M98.97,60.646v-.174l-.069.174c-.035,0-.208-.035-1.007-.208-.729-.139-1.146-.382-1.319-.764a4.943,4.943,0,0,1-.139-1.354c-.035-.382-.035-.66-.035-.9,0-3.715.035-6.563.139-8.542.035-.625.035-1.111.035-1.424,0-1.632.174-1.945.486-1.945a.678.678,0,0,0,.243-.035c.035,0,.069-.035.1-.035V45.4h.139v.174l.069-.139c.035,0,.1.035.556.139a2.406,2.406,0,0,0,.694.1,8.976,8.976,0,0,1,1.319.208.7.7,0,0,1,.451.556c.278,1.319.729,3.333,1.354,5.972,0,.035,0,.035.035.069a1.615,1.615,0,0,0,.1-.313q.26-.885.417-1.563l.833-3.3c.694-2.5,1.111-2.813,1.424-2.813a4.082,4.082,0,0,1,1.25.243,5.68,5.68,0,0,1,1.215.451.779.779,0,0,1,.486.729V58.077l-.243-.1a1.866,1.866,0,0,0-.729-.174h-.8a2.062,2.062,0,0,0-.9.243l-.278.174V57.9c.035-.729.035-1.632.1-2.639.069-1.84.1-3.264.1-4.167a3.46,3.46,0,0,0-.1-1.042,1.406,1.406,0,0,0-.1.347c-.243.833-.66,2.535-1.215,4.965-.069.417-.174.9-.313,1.493-.243.938-.486,1.354-.833,1.354a1.752,1.752,0,0,1-1.806-1.458v-.035a12.524,12.524,0,0,0-.347-1.528c-.174-.694-.417-1.736-.729-3.09-.069-.347-.174-.833-.312-1.493,0,.035-.035.069-.035.139v1.91c0,.556,0,1.424.035,2.639s.035,2.083.035,2.639v.833a5.184,5.184,0,0,0,.035.66,5.979,5.979,0,0,1,.035.694.442.442,0,0,1-.243.451v.035l-.139.035ZM97.094,45.819a3.608,3.608,0,0,0-.174,1.6c0,.347,0,.833-.035,1.458-.1,1.945-.139,4.827-.139,8.507a8.511,8.511,0,0,0,.035.868,4.843,4.843,0,0,0,.139,1.25c.1.243.451.417,1.042.556.556.1.833.174,1.007.208h0c.035,0,.069,0,.069-.139a5.184,5.184,0,0,0-.035-.66,5.982,5.982,0,0,1-.035-.694v-.833c0-.556,0-1.424-.035-2.639S98.9,53.216,98.9,52.66V50.611c0-.521.347-.59.486-.59h.139l.035.139c.139.729.278,1.319.347,1.7.312,1.389.556,2.4.729,3.09a10.139,10.139,0,0,1,.347,1.6,1.449,1.449,0,0,0,1.493,1.181s.208,0,.486-1.076q.208-.833.313-1.458c.556-2.5.972-4.132,1.215-5,.174-.59.243-.694.382-.694.486,0,.521.8.521,1.493,0,.938-.035,2.326-.1,4.2-.035.868-.069,1.667-.069,2.326a2.06,2.06,0,0,1,.8-.174h.8a2.18,2.18,0,0,1,.66.1V45.819c0-.1-.035-.278-.312-.417a5.1,5.1,0,0,0-1.146-.417,4.948,4.948,0,0,0-1.181-.208c-.035,0-.382.1-1.076,2.57l-.833,3.3a14.262,14.262,0,0,1-.451,1.563c-.208.694-.313.833-.451.833s-.174-.1-.313-.556c-.625-2.639-1.111-4.653-1.354-6.007a.379.379,0,0,0-.208-.313c-.486-.1-.9-.174-1.215-.208a5.765,5.765,0,0,1-.764-.1c-.278-.069-.451-.1-.556-.139-.035,0-.069.035-.139.035A2.267,2.267,0,0,1,97.094,45.819Zm.486-.278v0Z" transform="translate(-96.4 -44.5)"/></g><g transform="translate(41.876 28.331)"><path class="a" d="M121.972,84.57a5.085,5.085,0,0,0,1.389.243q.313,0,.313-.729V82.208A2.105,2.105,0,0,0,122.84,82h-.8a1.992,1.992,0,0,0-1.007.278c0,.625-.035,1.146-.035,1.563C121,84.153,121.347,84.4,121.972,84.57Z" transform="translate(-120.861 -81.826)"/><path class="a" d="M123.1,84.66a4.233,4.233,0,0,1-1.424-.243c-.729-.208-1.076-.521-1.076-.9,0-.417,0-.938.035-1.563v-.1l.069-.035a1.949,1.949,0,0,1,1.076-.313h.8a2.138,2.138,0,0,1,.9.208l.1.035v2.014C123.551,84.347,123.413,84.66,123.1,84.66Zm-2.153-2.6c0,.556-.035,1.042-.035,1.458,0,.278.451.451.833.59h0a4.534,4.534,0,0,0,1.319.208c.035,0,.139-.139.139-.556V81.986a1.409,1.409,0,0,0-.66-.139h-.764A1.65,1.65,0,0,0,120.947,82.056Z" transform="translate(-120.6 -81.5)"/></g><g transform="translate(10.139 15.9)"><path d="M37.482,54.985a3.3,3.3,0,0,0-1.181-.833,1.656,1.656,0,0,1-.278-.139c0-.069.1-.139.313-.243l.347-.174a3.83,3.83,0,0,0,1.84-3.056,4.44,4.44,0,0,0-2.326-3.82,2.811,2.811,0,0,0-.868-.417,5.7,5.7,0,0,0-1.285-.1H32.9a8.952,8.952,0,0,0-1.736.208c-.833.139-1.354.347-1.458.59a1.187,1.187,0,0,0-.1.59c0,.208,0,.486.035.868s.035.66.035.868v8.889a9.463,9.463,0,0,1-.035,1.076,1.912,1.912,0,0,1,1.424-.66h.8a.765.765,0,0,1,.278.035v-1.91a4.419,4.419,0,0,1,.1-1.25.557.557,0,0,1,.556-.278h.625a3.432,3.432,0,0,1,1.563.347,1.334,1.334,0,0,1,.868,1.181c0,.382-.313.8-.972,1.215a6.544,6.544,0,0,1-1.563.764c-.208.069-.382.139-.521.174a1.648,1.648,0,0,1,.833,1.424,1.721,1.721,0,0,1-.278.9c.1-.035.208-.035.313-.069,3.229-.764,4.861-1.979,4.861-3.576A3.383,3.383,0,0,0,37.482,54.985Zm-2.674-3.333A4.248,4.248,0,0,1,32.447,52.8c-.139,0-.174-.035-.174-.1a1.761,1.761,0,0,1,.069-.313,1.761,1.761,0,0,0,.069-.313,3.647,3.647,0,0,0-.069-.451,3.647,3.647,0,0,1-.069-.451s0-.243.035-.66a8.536,8.536,0,0,0,.069-.972v-.556c0-.451.556-.66,1.7-.66a3.028,3.028,0,0,1,1.389.313,1.19,1.19,0,0,1,.764,1.042C36.232,50.228,35.746,50.888,34.808,51.652Z" transform="translate(-29.461 -46.026)"/><path d="M32.811,61.152l.243-.347a1.351,1.351,0,0,0,.243-.8,1.475,1.475,0,0,0-.764-1.285l-.382-.208.417-.1c.139-.035.313-.069.521-.139a8.9,8.9,0,0,0,1.528-.729c.59-.382.9-.764.9-1.076a1.19,1.19,0,0,0-.764-1.042,3.056,3.056,0,0,0-1.493-.347H32.6c-.313,0-.382.139-.382.174a4.359,4.359,0,0,0-.1,1.215v2.118l-.208-.069c-.069,0-.174-.035-.243-.035h-.8a1.667,1.667,0,0,0-1.285.59l-.382.417.069-.556a8.511,8.511,0,0,0,.035-1.042V49c0-.208,0-.486-.035-.868s-.035-.694-.035-.868a1.523,1.523,0,0,1,.1-.66c.174-.313.66-.521,1.6-.694a8.694,8.694,0,0,1,1.771-.208h1.146a6.507,6.507,0,0,1,1.319.1,2.784,2.784,0,0,1,.938.417,4.694,4.694,0,0,1,2.431,3.958,3.873,3.873,0,0,1-1.91,3.195,1.894,1.894,0,0,1-.382.174c-.035,0-.069.035-.1.035a.034.034,0,0,1,.035.035,3.611,3.611,0,0,1,1.25.9,4.263,4.263,0,0,1,1.181,2.708c0,1.667-1.667,2.951-5,3.75-.1.035-.174.035-.278.069Zm.208-2.5a1.846,1.846,0,0,1,.625,1.354,1.362,1.362,0,0,1-.139.625c3.09-.764,4.688-1.91,4.688-3.4a3.964,3.964,0,0,0-1.076-2.465h0a2.952,2.952,0,0,0-1.111-.8c-.278-.139-.382-.174-.382-.313,0-.174.174-.278.417-.382a1.287,1.287,0,0,0,.313-.139,3.655,3.655,0,0,0,1.771-2.917,4.341,4.341,0,0,0-2.257-3.681,2.972,2.972,0,0,0-.833-.382,5.415,5.415,0,0,0-1.215-.1H32.672a11.28,11.28,0,0,0-1.7.174c-1.042.174-1.285.417-1.354.521-.035.035-.069.174-.069.521,0,.208,0,.486.035.868s.035.694.035.868v9.549a2.136,2.136,0,0,1,1.215-.417h.9v-1.7a3.56,3.56,0,0,1,.139-1.319c.069-.174.243-.382.729-.382h.625a3.643,3.643,0,0,1,1.632.382,1.453,1.453,0,0,1,.972,1.354c0,.451-.347.9-1.042,1.389a7.63,7.63,0,0,1-1.6.8A.158.158,0,0,0,33.02,58.652Zm2.917-4.931Zm-3.75-1.042c-.347,0-.347-.243-.347-.278a2,2,0,0,1,.069-.347,1.3,1.3,0,0,0,.035-.278c0-.069-.035-.208-.069-.417a3.985,3.985,0,0,1-.069-.486c0-.035,0-.243.035-.694a8.536,8.536,0,0,0,.069-.972v-.556c0-.833,1.424-.833,1.875-.833a2.835,2.835,0,0,1,1.458.347,1.341,1.341,0,0,1,.868,1.215c0,.59-.486,1.285-1.493,2.083h0A4.266,4.266,0,0,1,32.186,52.679Zm0-.347a4.273,4.273,0,0,0,2.257-1.111h0c.9-.729,1.354-1.354,1.354-1.806,0-.382-.208-.66-.694-.9a2.743,2.743,0,0,0-1.319-.313c-.556,0-1.528.069-1.528.486v.556a9.172,9.172,0,0,1-.069,1.007c-.035.417-.035.625-.035.66,0,.069.035.208.069.417a3.985,3.985,0,0,1,.069.486,2,2,0,0,1-.069.347A.26.26,0,0,0,32.186,52.332Zm-.069-.035Z" transform="translate(-29.2 -45.7)"/></g><g transform="translate(10.174 28.331)"><path class="a" d="M33.029,82.278a.611.611,0,0,1-.208.035c-.313,0-.486-.069-.486-.208v-.069c-.1,0-.174-.035-.278-.035h-.8a1.8,1.8,0,0,0-1.424.66v.035c-.035.278-.035.347-.035.278a1.2,1.2,0,0,0,.035.313,1.2,1.2,0,0,1,.035.313v.486c0,.1.208.278.66.59a3.461,3.461,0,0,0,.8.451.262.262,0,0,0,.243-.139.463.463,0,0,1,.208-.174l.139-.035h.243A8.23,8.23,0,0,0,33.62,84.6a1.548,1.548,0,0,0,.278-.9A1.793,1.793,0,0,0,33.029,82.278Z" transform="translate(-29.626 -81.826)"/><path class="a" d="M31,84.938c-.1,0-.313-.069-.9-.451-.625-.417-.729-.59-.729-.729v-.486a1.3,1.3,0,0,0-.035-.278c0-.069-.035-.1-.035-.174h0v-.174h.1l-.1-.035a1.87,1.87,0,0,0,.035-.278V82.3l.035-.069a2.032,2.032,0,0,1,1.563-.729h.8a.962.962,0,0,1,.313.035l.139.035v.208a.83.83,0,0,0,.313.035.465.465,0,0,0,.174-.035h.069l.069.035a1.826,1.826,0,0,1,.938,1.563,1.624,1.624,0,0,1-.313.972l-.069.069h-.069a6.164,6.164,0,0,1-1.493.174h-.208l-.1.035s-.035,0-.1.1A.435.435,0,0,1,31,84.938Zm-1.285-1.181a6.032,6.032,0,0,0,.59.451c.556.382.694.417.729.417,0,0,.035,0,.1-.069a.642.642,0,0,1,.313-.243l.139-.035v0h.278a7.22,7.22,0,0,0,1.354-.174,1.459,1.459,0,0,0,.208-.729,1.552,1.552,0,0,0-.694-1.25,1.5,1.5,0,0,0-.174.035c-.451,0-.59-.139-.625-.313H30.932a1.681,1.681,0,0,0-1.25.556c0,.139-.035.208-.035.278a.916.916,0,0,0,.035.243,1.3,1.3,0,0,1,.035.347v.486Z" transform="translate(-29.3 -81.5)"/></g><g transform="translate(48.855 0.048)"><g transform="translate(0 4.371)"><g transform="translate(3.612 1.863)"><path d="M187.316,36.994a20.446,20.446,0,0,1-2.153,9.063,17.933,17.933,0,0,1-6.32,7.153,16.94,16.94,0,0,1-9.584,2.743,17.335,17.335,0,0,1-9.549-2.674,17.989,17.989,0,0,1-6.389-7.014,20.052,20.052,0,0,1-2.222-9.271,20.372,20.372,0,0,1,1.319-7.257,18.729,18.729,0,0,1,3.75-6.111,17.07,17.07,0,0,1,5.764-4.132A18.01,18.01,0,0,1,169.226,18a17.432,17.432,0,0,1,15.938,9.723A21.249,21.249,0,0,1,187.316,36.994Zm-18.16-15.9a13.761,13.761,0,0,0-7.952,2.361,15.548,15.548,0,0,0-5.243,6.077,16.746,16.746,0,0,0-1.806,7.466,15.117,15.117,0,0,0,2.014,7.257,18.284,18.284,0,0,0,5.452,6.181,12.641,12.641,0,0,0,7.5,2.431,13.579,13.579,0,0,0,7.6-2.292,16.1,16.1,0,0,0,5.452-5.972,15.928,15.928,0,0,0,1.979-7.6,16.212,16.212,0,0,0-1.111-5.8,16.862,16.862,0,0,0-3.125-5.139,15.042,15.042,0,0,0-4.792-3.611A13.341,13.341,0,0,0,169.156,21.09Z" transform="translate(-151.1 -18)"/></g><path class="a" d="M180.526,33.492s0,.451-.035,1.319a18.89,18.89,0,0,1-.556,3.681,22.672,22.672,0,0,1-2.014,5.452,20.043,20.043,0,0,1-4.792,5.972,18.419,18.419,0,0,1-8.472,4.063,19.338,19.338,0,0,1-20.383-8.368,22.228,22.228,0,0,1,.035-24.237,19.406,19.406,0,0,1,9.514-7.57,19.783,19.783,0,0,1,10.9-.729A18.731,18.731,0,0,1,173.2,17.1a20.482,20.482,0,0,1,4.792,5.972,22.411,22.411,0,0,1,1.979,5.452,21.281,21.281,0,0,1,.521,3.681C180.526,33.041,180.526,33.492,180.526,33.492Zm0,0s0-.451-.069-1.319a16.9,16.9,0,0,0-.625-3.646,19.019,19.019,0,0,0-2.326-5.208,15.481,15.481,0,0,0-5.243-5,14.787,14.787,0,0,0-7.917-2.153,15.76,15.76,0,0,0-14.375,8.611,18.583,18.583,0,0,0-2.118,8.716,18.789,18.789,0,0,0,2.083,8.646,15.722,15.722,0,0,0,14.341,8.681,14.581,14.581,0,0,0,7.882-2.153,16.157,16.157,0,0,0,5.243-5,19.224,19.224,0,0,0,2.361-5.208,17.246,17.246,0,0,0,.625-3.646A9.375,9.375,0,0,0,180.526,33.492Z" transform="translate(-140.698 -12.636)"/><g transform="translate(4.735 4.953)"><path class="a" d="M171.267,26.9s-.382,0-1.076.035a14.665,14.665,0,0,0-2.986.556,11.576,11.576,0,0,0-4.1,2.257,13.411,13.411,0,0,0-3.646,4.722A14.981,14.981,0,0,0,158,41.1a12.528,12.528,0,0,0,2.049,6.7,16.273,16.273,0,0,0,5.07,5.243,10.605,10.605,0,0,0,6.181,1.979,11.537,11.537,0,0,0,6.424-1.945,15.532,15.532,0,0,0,4.931-5.139,13.522,13.522,0,0,0,1.945-6.771,14.541,14.541,0,0,0-1.493-6.632,13.823,13.823,0,0,0-3.646-4.722,12.953,12.953,0,0,0-4.1-2.292,11.353,11.353,0,0,0-2.986-.59C171.649,26.9,171.267,26.9,171.267,26.9Zm0,0s.382,0,1.076.035a14.76,14.76,0,0,1,3.021.521,17.263,17.263,0,0,1,9.028,6.32,18.986,18.986,0,0,1,3.333,7.049,16.953,16.953,0,0,1-.417,9.167,17.89,17.89,0,0,1-5.66,8.472,16.131,16.131,0,0,1-10.313,3.82A15.4,15.4,0,0,1,160.92,58.29a19.176,19.176,0,0,1-5.59-8.368,15.858,15.858,0,0,1-.556-9.2,20.1,20.1,0,0,1,3.3-7.049,16.773,16.773,0,0,1,9.028-6.285,16.233,16.233,0,0,1,3.021-.451C170.885,26.9,171.267,26.9,171.267,26.9Z" transform="translate(-154.334 -26.9)"/></g></g><g transform="translate(2.327 25.192)"><circle cx="1.701" cy="1.701" r="1.701" transform="translate(0.035 0.035)"/><path d="M149.136,76.072a1.741,1.741,0,0,1-1.736-1.736,1.736,1.736,0,1,1,3.472,0A1.741,1.741,0,0,1,149.136,76.072Zm0-3.4a1.667,1.667,0,0,0-1.667,1.667,1.667,1.667,0,1,0,1.667-1.667Z" transform="translate(-147.4 -72.6)"/></g><g transform="translate(29.168 37.658)"><circle cx="1.701" cy="1.701" r="1.701" transform="translate(0.035 0.035)"/><path d="M226.436,111.972a1.741,1.741,0,0,1-1.736-1.736,1.736,1.736,0,1,1,3.472,0A1.741,1.741,0,0,1,226.436,111.972Zm0-3.4a1.667,1.667,0,0,0-1.667,1.667,1.667,1.667,0,1,0,3.333,0A1.667,1.667,0,0,0,226.436,108.569Z" transform="translate(-224.7 -108.5)"/></g><g transform="translate(1.424 11.824)"><circle cx="2.604" cy="2.604" r="2.604" transform="translate(0.035 0.035)"/><path d="M147.439,39.378a2.639,2.639,0,1,1,2.639-2.639A2.638,2.638,0,0,1,147.439,39.378Zm0-5.174a2.535,2.535,0,1,0,2.535,2.535A2.484,2.484,0,0,0,147.439,34.2Z" transform="translate(-144.8 -34.1)"/></g><g transform="translate(15.383 35.054)"><circle cx="2.604" cy="2.604" r="2.604" transform="translate(0.035 0.035)"/><path d="M187.639,106.278a2.639,2.639,0,1,1,2.639-2.639A2.638,2.638,0,0,1,187.639,106.278Zm0-5.208a2.535,2.535,0,1,0,2.535,2.535A2.5,2.5,0,0,0,187.639,101.069Z" transform="translate(-185 -101)"/></g><g transform="translate(3.126 36.755)"><circle cx="2.604" cy="2.604" r="2.604" transform="translate(0.035 0.035)"/><path d="M152.339,111.178a2.639,2.639,0,1,1,2.639-2.639A2.638,2.638,0,0,1,152.339,111.178Zm0-5.174a2.535,2.535,0,1,0,2.535,2.535A2.484,2.484,0,0,0,152.339,106Z" transform="translate(-149.7 -105.9)"/></g><g transform="translate(28.786 26.859)"><circle cx="3.75" cy="3.75" r="3.75" transform="translate(0.069 0.069)"/><path d="M227.42,85.039a3.82,3.82,0,1,1,3.82-3.82A3.809,3.809,0,0,1,227.42,85.039Zm0-7.535a3.715,3.715,0,1,0,3.715,3.715A3.72,3.72,0,0,0,227.42,77.5Z" transform="translate(-223.6 -77.4)"/></g><g transform="translate(35.071 23.595)"><circle cx="1.597" cy="1.597" r="1.597" transform="translate(0.035 0.035)"/><path d="M243.332,71.264a1.632,1.632,0,1,1,1.632-1.632A1.63,1.63,0,0,1,243.332,71.264Zm0-3.195a1.563,1.563,0,1,0,1.563,1.563A1.578,1.578,0,0,0,243.332,68.069Z" transform="translate(-241.7 -68)"/></g><g transform="translate(29.168)"><path d="M226.019,5.518a14.937,14.937,0,0,0-.625-2.778c-.139-.313-.312-.59-.417-.833a2.593,2.593,0,0,1-.1-.694A1.523,1.523,0,0,0,224.7.379L224.735.2a.637.637,0,0,1,.347-.139,1.367,1.367,0,0,1,.938.278,2.07,2.07,0,0,1,.729.972,3.794,3.794,0,0,1,.069,1.25,8.819,8.819,0,0,1-.312,2.118c-.174.556-.312.9-.312.9Z" transform="translate(-224.7 -0.048)"/></g><g transform="translate(37.085 9.142)"><path d="M247.5,28.745s.243-.278.66-.66a7.471,7.471,0,0,1,1.771-1.215,4.22,4.22,0,0,1,1.146-.486,1.968,1.968,0,0,1,1.181.243,1.429,1.429,0,0,1,.66.729.809.809,0,0,1,.035.382l-.139.1a1.42,1.42,0,0,0-.833.208,2.1,2.1,0,0,1-.66.208,8.418,8.418,0,0,0-.938,0,17.6,17.6,0,0,0-2.778.66Z" transform="translate(-247.5 -26.375)"/></g></g><g transform="translate(2.083 32.602)"><g transform="translate(0 1.945)"><path d="M11.834,99.886a6.449,6.449,0,0,1-.382,1.493c-.174.451-.382,1.111-.694,2.014-.174.694-.382,1.007-.59,1.007a.262.262,0,0,1-.139-.035.313.313,0,0,0-.174-.035H9.715a.575.575,0,0,1-.417-.174,1.314,1.314,0,0,1-.278-.625c-.035-.243-.1-.451-.139-.694a1.054,1.054,0,0,0-.1-.382c-.035-.1-.069-.174-.1-.174-.069,0-.1.069-.1.174v.069a6.246,6.246,0,0,1-.174,1.042c-.139.556-.278.868-.417.868-.035,0-.174-.035-.417-.069a1.142,1.142,0,0,1-.8-.382,2.724,2.724,0,0,1-.278-1.007,11.5,11.5,0,0,0-.278-1.354A6.107,6.107,0,0,1,6,100.233a.587.587,0,0,1,.069-.174.186.186,0,0,1,.139-.1h.278a3.506,3.506,0,0,1,.764.174,1.023,1.023,0,0,1,.1.347,12.374,12.374,0,0,0,.278,1.84.152.152,0,0,0,.035.1c.035,0,.069-.069.1-.174a3.6,3.6,0,0,0,.1-.417c.069-.313.1-.625.174-.938.1-.486.243-.729.382-.729a.128.128,0,0,1,.1.035.121.121,0,0,1,.069.035.108.108,0,0,0,.069-.035.121.121,0,0,0,.069-.035.776.776,0,0,1,.347.1c.1.069.174.139.174.208a3.75,3.75,0,0,0,.174.868,4.12,4.12,0,0,1,.174.868c0,.1,0,.174.035.174a.184.184,0,0,0,.208-.208v-.139a.346.346,0,0,1,.035-.139c.1-.347.278-.868.486-1.563a1.762,1.762,0,0,1,.069-.313.433.433,0,0,0,.139-.382v-.035c0-.139.069-.208.243-.208a1.323,1.323,0,0,1,.59.139C11.729,99.643,11.834,99.747,11.834,99.886Z" transform="translate(-6 -99.4)"/></g><g transform="translate(6.25 2.465)"><path d="M27.75,103.956v.243c0,.069-.069.174-.208.347a3.181,3.181,0,0,1-.486.486,5.219,5.219,0,0,1-.59.382,1.81,1.81,0,0,1-.486.069,1.983,1.983,0,0,1-.556-.139c-.1-.035-.243-.069-.451-.139A1.74,1.74,0,0,1,24,103.678a4.278,4.278,0,0,1,.278-1.319,3.294,3.294,0,0,1,.694-1.215.864.864,0,0,1,.66-.243,3.888,3.888,0,0,1,.764.1,2.674,2.674,0,0,1,.66.243c.382.243.556.764.556,1.528v.486c0,.069-.174.139-.486.174-.069,0-.208.035-.417.035-.035,0-.278.035-.729.069s-.694.174-.694.347v.347c0,.243.1.382.347.382a1.107,1.107,0,0,0,.59-.243,1.475,1.475,0,0,0,.486-.382,1.5,1.5,0,0,1,.243-.243c.1-.069.174-.139.208-.139a.925.925,0,0,1,.417.1C27.681,103.782,27.75,103.851,27.75,103.956ZM26.4,102.6c0-.66-.1-.972-.347-.972-.069,0-.174.174-.313.486a2.15,2.15,0,0,0-.243.625c0,.035.035.035.1.035s.208-.035.451-.069A.907.907,0,0,0,26.4,102.6Z" transform="translate(-24 -100.9)"/></g><g transform="translate(10.938)"><path d="M41.354,98.175a3.745,3.745,0,0,1-.313,1.6,1.508,1.508,0,0,1-1.424,1.007,3.44,3.44,0,0,1-.66-.1,2.85,2.85,0,0,0-.625-.1.377.377,0,0,0-.174.035.378.378,0,0,1-.174.035.4.4,0,0,1-.382-.312,2.309,2.309,0,0,1-.1-.729V97.724c0-.8.035-1.736.139-2.882.035-.451.035-.66.035-.59v-.278c0-.1.1-.174.313-.174.66,0,.972.139.972.417a22.021,22.021,0,0,1-.139,2.57.972.972,0,0,0-.035.208c0,.035,0,.035.035.035.278-.382.556-.59.833-.59a1.766,1.766,0,0,1,.694.139,1.337,1.337,0,0,1,.8.694A1.29,1.29,0,0,1,41.354,98.175Zm-1.319-.417v-.417c0-.139-.035-.174-.139-.174-.069,0-.174.1-.347.347a3.943,3.943,0,0,0-.694,2.257c0,.174.1.278.347.278.313,0,.556-.347.694-1.007A5.207,5.207,0,0,0,40.035,97.758Z" transform="translate(-37.5 -93.8)"/></g><g transform="translate(18.889 2.361)"><path d="M63.733,101.919c0,.417-.139.625-.382.625h-.486c-.174,0-.313-.1-.347-.347a1.578,1.578,0,0,1-.035-.486c0-.174-.035-.278-.1-.278-.139,0-.243.069-.382.243a.664.664,0,0,0-.174.417c0,.208.382.521,1.111.972.521.313.764.625.764,1.007a1.025,1.025,0,0,1-.521.764,1.835,1.835,0,0,1-1.042.382,2.457,2.457,0,0,1-1.042-.313c-.451-.208-.694-.417-.694-.59a.262.262,0,0,1,.035-.139.269.269,0,0,0,.035-.1V104c0-.069.139-.1.382-.1a1.781,1.781,0,0,1,.59.243c.347.139.521.243.556.243a.494.494,0,0,0,.208-.069.191.191,0,0,0,.1-.174c0-.1-.139-.278-.451-.451a5.7,5.7,0,0,1-.868-.59,1.231,1.231,0,0,1-.451-.972,1.2,1.2,0,0,1,.417-.833,2.716,2.716,0,0,1,.9-.59,1.488,1.488,0,0,1,.347-.1,1.86,1.86,0,0,1,.9.243,1.278,1.278,0,0,1,.59.521A2.471,2.471,0,0,1,63.733,101.919Z" transform="translate(-60.4 -100.6)"/></g><g transform="translate(22.883 0.868)"><path d="M75.164,98.9c-.069.1-.139.174-.174.174a.262.262,0,0,0-.139-.035c-.451,0-.66.069-.66.174a.269.269,0,0,0,.035.1.771.771,0,0,1,.035.313,2.491,2.491,0,0,1-.035.451,2.838,2.838,0,0,0-.035.486,1.993,1.993,0,0,0,.035.417,2.3,2.3,0,0,1,.035.451v.625c0,.243-.069.347-.208.347a2.771,2.771,0,0,1-.556-.1,3.232,3.232,0,0,1-.486-.139.589.589,0,0,1-.139-.451v-2.5a1.461,1.461,0,0,0-.174-.069.782.782,0,0,0-.243-.035.034.034,0,0,0-.035.035c-.035,0-.035.035-.069.035-.1,0-.208-.1-.313-.278a1.3,1.3,0,0,1-.139-.382c0-.035.035-.069.069-.139.069-.035.1-.069.174-.069h.1a.262.262,0,0,0,.139-.035c.069,0,.1-.035.139-.035a.5.5,0,0,0,.313-.069,1.314,1.314,0,0,0,.035-.278v-.9a.263.263,0,0,0-.035-.139.128.128,0,0,1-.035-.1c0-.035,0-.035.035-.069a.108.108,0,0,0,.035-.069v-.139c0-.1.1-.174.313-.174.729,0,1.076.139,1.076.451a.916.916,0,0,1-.035.243,2.664,2.664,0,0,0-.035.625.108.108,0,0,1-.035.069.128.128,0,0,0-.035.1V98a.092.092,0,0,0,.1.1h.486c.139,0,.243.035.278.1v.451C75.129,98.731,75.129,98.8,75.164,98.9Z" transform="translate(-71.9 -96.3)"/></g><g transform="translate(26.98 2.326)"><path d="M87.45,104.493a.648.648,0,0,1-.174.347.526.526,0,0,1-.382.243,2.05,2.05,0,0,1-.486-.069c-.1-.035-.174-.174-.243-.347a.121.121,0,0,0-.035-.069.6.6,0,0,0-.139.1,1.155,1.155,0,0,1-.8.382,1.854,1.854,0,0,1-.694-.174,1.269,1.269,0,0,1-.521-.382,2.667,2.667,0,0,1-.278-1.319c0-.278.035-.694.069-1.215a2.894,2.894,0,0,1,.174-1.111c.035-.069.174-.1.347-.1a3.039,3.039,0,0,1,.556.069c.243.069.347.174.347.278,0,.243-.035.625-.069,1.111s-.069.868-.069,1.111a2.674,2.674,0,0,0,.035.66c.035.1.069.139.1.139.313,0,.521-.069.625-.243a1.481,1.481,0,0,0,.174-.833,4.711,4.711,0,0,1,.035-.625c0-.278.035-.486.035-.625a2.838,2.838,0,0,0-.035-.486c0-.208-.035-.382-.035-.486s.069-.174.174-.243a.587.587,0,0,1,.347-.1,1.393,1.393,0,0,1,.521.1c.174.069.278.139.278.243a.782.782,0,0,1-.035.243c0,.1-.035.174-.035.243a2.836,2.836,0,0,0,.035.486c0,.208.035.382.035.486a7.642,7.642,0,0,1-.035.8,7.639,7.639,0,0,0-.035.8c0,.208.035.347.139.417A.414.414,0,0,0,87.45,104.493Z" transform="translate(-83.7 -100.5)"/></g><g transform="translate(31.494 0.035)"><path d="M100.589,100.81c0,.139-.1.243-.347.243a1.558,1.558,0,0,1-.66-.174.539.539,0,0,1-.313-.521.092.092,0,0,0-.1-.1,2.429,2.429,0,0,0-.417.278,1.318,1.318,0,0,1-.556.278,1.162,1.162,0,0,1-.486-.139c-.208-.1-.417-.208-.59-.313-.278-.174-.417-.59-.417-1.181a3.231,3.231,0,0,1,.243-1.146,3.036,3.036,0,0,1,.59-1.076,2.164,2.164,0,0,1,.417-.313.876.876,0,0,1,.313-.139c.035,0,.139.035.347.069a3.238,3.238,0,0,0,.486.069c.069,0,.1-.035.1-.139v-.069c0-.035,0-.035.035-.069a.108.108,0,0,0,.035-.069.262.262,0,0,0-.035-.139.262.262,0,0,1-.035-.139,2.491,2.491,0,0,1,.035-.451,2.49,2.49,0,0,0,.035-.451,2.3,2.3,0,0,0-.035-.521l-.035-.347c0-.243.1-.347.278-.347a5.152,5.152,0,0,1,.868.174c.069.035.1.035.139.1a.78.78,0,0,1,.035.347v2.014c0,.347,0,.833-.035,1.458-.035.66-.035,1.146-.035,1.458v1.25c0,.035,0,.035.035.1C100.589,100.775,100.589,100.81,100.589,100.81Zm-1.354-3.333c0-.174-.069-.243-.208-.243-.278,0-.521.382-.764,1.146a5,5,0,0,0-.313,1.458c0,.1.035.139.139.139a.562.562,0,0,0,.347-.243,2.265,2.265,0,0,0,.625-1.076A2.824,2.824,0,0,0,99.235,97.476Z" transform="translate(-96.7 -93.9)"/></g><g transform="translate(36.772 0.556)"><path d="M113.358,96.094a.961.961,0,0,1-.1.451.49.49,0,0,1-.417.278c-.625,0-.938-.174-.938-.556V95.99a.543.543,0,0,1,.208-.417.682.682,0,0,1,.521-.174.843.843,0,0,1,.382.139c.174.069.243.174.243.208a.494.494,0,0,0,.069.208A.209.209,0,0,1,113.358,96.094Zm0,1.632a5.682,5.682,0,0,1-.035.694,5.98,5.98,0,0,0-.035.694v2.431q0,.313-.417.313a2.3,2.3,0,0,1-.521-.035.56.56,0,0,1-.417-.451,2.485,2.485,0,0,1-.035-.59V97.9c0-.347.139-.521.382-.521C113.011,97.31,113.358,97.449,113.358,97.726Z" transform="translate(-111.9 -95.4)"/></g><g transform="translate(39.341 2.431)"><path d="M123.12,103.057a2.843,2.843,0,0,1-.347,1.389,1.469,1.469,0,0,1-1.285.9,1.909,1.909,0,0,1-.556-.1l-.972-.347a2.057,2.057,0,0,0-.208-.139,1.644,1.644,0,0,1-.451-1.319,4.6,4.6,0,0,1,.313-1.528c.278-.764.625-1.111,1.042-1.111a4.685,4.685,0,0,1,.694.1,3.4,3.4,0,0,1,.66.174C122.738,101.286,123.12,101.946,123.12,103.057Zm-1.389-.208a5.35,5.35,0,0,0-.069-.66q-.1-.521-.313-.521c-.208,0-.382.278-.556.833a5.305,5.305,0,0,0-.174,1.042,3.462,3.462,0,0,0,.069.556c.069.278.139.417.278.417.243,0,.451-.243.59-.729A2.455,2.455,0,0,0,121.731,102.849Z" transform="translate(-119.3 -100.8)"/></g></g></g></svg>