<svg  xmlns="http://www.w3.org/2000/svg" xmlns:xlink="http://www.w3.org/1999/xlink" x="0px" y="0px"
	 width="240" height="70" viewBox="0 0 240 70" enable-background="new 0 0 240 70" xml:space="preserve">
<path id="icon" d="M213.875,20.905c-9.788,0-15.002,6.262-15.002,14.897c0,8.632,5.214,14.952,15.002,14.952
	c9.796,0,14.951-6.32,14.951-14.952C228.826,27.164,223.671,20.905,213.875,20.905z M213.875,45.331
	c-4.524,0-5.951-4.37-5.951-9.581c0-5.213,1.375-9.791,5.951-9.791c4.575,0,5.896,4.575,5.896,9.791
	C219.771,40.961,218.453,45.331,213.875,45.331z M43.782,36.697c0,8.417,5.634,13.954,13.583,13.954c2.682,0,4.9-0.425,6.424-1.058
	v4.52c0,7.233,8.789,7.222,8.789,7.222V23.004c-2.369-1.158-6.475-2.102-11.845-2.102C48.624,20.905,43.782,27.957,43.782,36.697z
	 M63.789,45.114c-0.901,0.427-2.313,0.738-3.894,0.738c-4.639,0-7.061-3.521-7.061-9.791c0-6.789,2.527-10.53,7.424-10.53
	c1.523,0,2.691,0.269,3.53,0.634V45.114z M26.089,21.006c-2.998,0-5.051,0.527-6.575,1.109v-5.422
	c0.03-8.873-8.847-8.004-8.847-8.004v39.952c2.217,1.221,6.265,2.112,11.843,2.112c10.906,0,16.959-5.838,16.959-15.688
	C39.469,26.693,33.993,21.006,26.089,21.006z M22.989,45.912c-1.582,0-2.688-0.216-3.475-0.581V26.325
	c1.053-0.475,2.311-0.679,3.997-0.679c5.001,0,6.896,4.206,6.896,9.894C30.41,41.806,27.993,45.912,22.989,45.912z M97.427,28.368
	v16.273c-1.003,0.425-2.584,0.737-4.527,0.737c-3.53,0-5.008-1.895-5.008-4.209V21.633c0,0-8.76,0.062-8.892,6.735v12.329
	c0,6.683,4.365,10.057,13.687,10.057c6.106,0,10.848-0.892,13.636-2.112V21.637C106.322,21.637,97.556,21.698,97.427,28.368z
	 M164.021,14.514v7.075c-1.155-0.266-3.053-0.529-5.208-0.529c-8.688,0-14.744,5.84-14.744,15.002
	c0,9.687,6.001,14.689,16.219,14.689c5.629,0,9.587-0.79,12.58-2.111V8.807C172.604,8.807,164.23,8.801,164.021,14.514z
	 M164.021,45.066c-0.733,0.366-2.055,0.63-3.524,0.63c-5.165,0-7.367-3.521-7.367-10.004c0-5.89,2.313-10.161,7.778-10.161
	c1.158,0,2.217,0.112,3.111,0.316v19.219H164.021z M179.288,23.004v27.014h0.024c0.521-0.008,8.78-0.159,8.832-7.837
	c0-0.401,0.021-0.749,0.039-1.072V26.535c1.746-0.734,4.906-0.684,7.324,0.103l1.679-5.525c-0.894-0.108-2.628-0.209-4.049-0.209
	C186.767,20.905,182.551,21.692,179.288,23.004z M125.805,20.905c-5.635,0-9.999,1.211-12.318,2.102l1.893,4.532
	c2.159-0.898,5.635-1.685,8.739-1.685c3.735,0,6.216,0.954,6.216,4.106v1.421c-10.164,0.84-18.905,2.843-18.905,10.37
	c0,5.79,4.844,9.003,14.379,9.003c5.634,0,10.163-0.843,12.9-2.112V31.323C138.705,23.692,133.274,20.905,125.805,20.905z
	 M130.334,45.594c-0.9,0.418-2.264,0.737-4,0.737c-4.005,0-6.485-1.474-6.485-4.896c0-4.844,4.269-5.896,10.485-6.479V45.594z" fill="#1E3685"/>

</svg>
