<svg width="250" height="567" viewBox="0 0 250 567" fill="none" xmlns="http://www.w3.org/2000/svg">
<path d="M164.114 63.6952L179.814 77.8498V69.1998C172.819 66.8362 171.284 65.7001 168.824 63.6952C170.393 51.8999 157.834 60.5499 164.114 63.6952Z" fill="#F7F8FB"/>
<path d="M190.804 80.209L191.589 69.9863L202.579 63.6954C200.224 55.8318 215.139 55.8318 209.644 64.4817L190.804 80.209Z" fill="#F7F8FB"/>
<path d="M203.364 99.868L210.429 94.3634H204.934L206.504 89.6453L200.224 90.4316L209.644 76.2771C209.644 76.2771 215.139 73.918 215.924 72.3453C216.537 71.1174 216.193 70.8482 215.639 70.4149C215.483 70.2932 215.311 70.1586 215.139 69.9862C214.354 69.1999 193.944 90.4316 193.944 90.4316L203.364 99.868Z" fill="#F7F8FB"/>
<path d="M158.618 117.954C159.919 117.954 160.973 116.898 160.973 115.595C160.973 114.292 159.919 113.236 158.618 113.236C157.318 113.236 156.263 114.292 156.263 115.595C156.263 116.898 157.318 117.954 158.618 117.954Z" fill="#F7F8FB"/>
<path d="M215.924 115.595C215.924 116.898 214.869 117.954 213.569 117.954C212.268 117.954 211.214 116.898 211.214 115.595C211.214 114.292 212.268 113.236 213.569 113.236C214.869 113.236 215.924 114.292 215.924 115.595Z" fill="#F7F8FB"/>
<path fill-rule="evenodd" clip-rule="evenodd" d="M110.732 18.8727C117.012 36.6154 122.383 44.3997 132.712 57.4044V0C275.583 9.43637 280.293 166.709 189.232 177.718C190.802 182.471 193.58 183.782 202.577 183.222C204.057 191.446 199.357 196.498 184.522 206.027C187.596 208.601 190.67 208.933 199.437 206.813C201.108 216.233 193.521 221.152 172.747 229.618L188.447 232.763C188.935 239.333 181.706 243.891 158.617 253.209L177.457 253.995C180.301 267.752 171.677 270.444 156.262 275.227V298.031C179.823 308.737 192.616 315.067 210.428 330.272L210.825 330.185C232.837 325.342 245.302 322.6 252.033 336.563C243.247 338.127 239.473 340.495 239.473 343.64C239.473 344.645 243 345.65 247.697 346.989C257.7 349.84 273.01 354.203 270.873 363.299C262.993 364.091 259.098 368.804 259.098 371.949C259.098 372.905 261.926 374.515 265.709 376.668C274.373 381.6 288.043 389.381 284.218 398.685C275.727 395.163 269.303 397.899 268.518 401.831C268.269 403.078 271.413 405.905 275.424 409.512C284.063 417.28 296.721 428.663 288.143 435.645C278.882 429.961 275.168 431.197 270.088 438.004C283.662 451.712 289.028 459.343 284.218 472.603C272.224 457.187 257.272 466.806 230.053 485.185C236.543 493.174 237.789 497.651 234.763 505.631C228.766 499.384 224.558 497.767 219.848 499.34C218.017 499.951 218.795 504.838 219.739 510.769C221.225 520.1 223.122 532.017 215.923 533.94C210.984 523.987 208.117 520.415 202.577 522.931C199.183 538.984 196.863 547.09 186.092 547.308C183.966 522.148 176.339 515.375 158.617 507.99L157.832 523.717H165.682V544.162H158.617C165.682 576.403 126.432 573.258 135.852 542.59C113.984 541.733 94.7043 530.771 77.06 520.738C62.7847 512.621 49.58 505.113 36.9413 504.058C52.6414 525.29 30.66 544.162 14.1761 534.726C-2.30784 525.29 -5.44908 503.272 10.2511 492.263C25.9512 481.253 40.0801 478.894 67.5565 492.263C77.4042 497.054 85.0334 501.946 92.1426 506.505C104.869 514.666 115.929 521.758 135.067 525.29V504.058C135.067 504.058 127.218 504.058 106.807 493.835C86.3954 483.613 59.6281 472.537 36.9413 471.817C30.6624 469.458 36.9413 462.381 36.9413 462.381C21.3221 460.256 16.8544 458.069 14.1761 452.944C10.2523 445.867 12.6061 435.645 12.6061 435.645C13.702 437.401 14.5029 438.968 15.2231 440.376C17.6819 445.185 19.1996 448.152 28.3062 450.585C40.0801 453.731 47.1463 447.44 47.1463 447.44C47.1463 447.44 36.7042 443.728 25.9512 434.072C17.1563 426.174 16.7175 424.876 15.3391 420.798C15.0322 419.891 14.6787 418.845 14.1761 417.558C11.4159 410.492 18.9019 394.334 28.3062 399.472C34.19 402.686 33.4191 405.641 32.9203 407.552C32.6219 408.695 32.4209 409.466 33.8012 409.695C38.9001 412.163 42.4973 412.222 49.5014 411.267C49.5014 411.267 47.9301 408.122 49.5014 405.763C50.4264 404.374 53.7997 404.893 57.0584 405.394C59.335 405.745 61.5556 406.086 62.8465 405.763C63.7658 405.532 64.4161 405.504 64.955 405.481C66.2558 405.425 66.9071 405.397 69.1265 402.617C64.4067 396.09 79.3328 379.026 92.6767 376.667C99.8188 375.405 111.009 376.169 120.109 376.791C128.011 377.331 134.337 377.764 135.067 376.667C136.328 374.775 136.07 373.894 135.514 371.995C135.377 371.528 135.222 370.998 135.067 370.376C134.283 367.231 127.216 363.299 120.937 361.727C118.029 360.998 110.591 360.187 102.733 359.329C93.6251 358.336 83.9534 357.281 80.1166 356.222C72.9694 354.25 57.2974 338.656 57.3514 332.631C73.0527 341.281 78.5466 328.699 78.5466 328.699C79.1571 323.814 65.0922 316.084 56.57 311.4C54.1174 310.052 52.1239 308.957 51.0714 308.254C50.7008 308.006 50.3544 307.778 50.0302 307.565C46.2331 305.065 45.4539 304.552 44.0063 298.031C42.4351 290.954 41.9957 286.537 42.4363 279.945C43.3672 280.715 44.2534 281.468 45.1071 282.193C52.8019 288.728 57.8522 293.017 69.1265 287.808C67.5306 279.083 63.4935 275.369 55.7814 268.936C45.4057 258.414 43.9448 251.04 49.5014 235.122C50.0242 235.69 50.5242 236.242 51.0087 236.777C56.5033 242.844 60.0088 246.715 72.2665 246.131C75.5375 238.02 74.3902 232.134 69.1265 220.181C67.9062 210.484 70.0986 205.33 78.5466 196.59C82.8051 208.368 85.4531 213.603 91.8917 213.89C97.7583 210.818 98.1774 203.09 98.8889 189.975C98.9112 189.564 98.9337 189.148 98.9567 188.727C99.5746 183.679 102.245 181.231 112.302 177.718C112.413 178.663 112.509 179.571 112.601 180.441C113.292 186.969 113.757 191.367 118.582 193.445C124.707 176.53 127.934 172.893 133.497 171.427C134.166 167.742 134.354 165.676 133.497 161.991C128.674 158.848 127.045 156.642 126.432 151.768C116.798 159.09 109.511 161.067 94.2467 161.991C62.6212 161.985 47.7327 162.631 40.8663 168.281C38.3005 162.078 38.6893 156.897 40.8663 146.263C43.2932 139.611 47.4105 136.698 62.0615 133.682C55.7271 127.717 51.88 126.453 44.7913 125.818C47.7095 120.109 51.5413 116.846 63.6315 110.877C51.8633 97.9251 45.2146 90.9421 31.4462 88.8589C42.3849 71.6343 54.5825 69.5536 80.9016 71.5589V51.8999C87.246 56.0103 90.7585 58.1948 95.8167 58.9771C92.9452 39.7001 95.4665 30.6069 110.732 18.8727ZM168.038 50.3272C154.889 51.8496 149.177 52.1004 142.918 51.1135C144.066 61.1985 144.109 66.5538 142.918 75.4908C146.089 77.3406 147.947 79.6525 150.947 83.3867C151.144 83.6318 151.346 83.8831 151.553 84.1408L147.628 85.7135C155.843 87.6053 160.418 88.7391 168.038 92.0044C162.63 85.7167 160.738 81.816 157.833 74.7044L157.048 77.8499C157.048 77.8499 153.123 75.4908 151.553 73.918C149.983 69.1999 153.503 67.5317 156.263 69.9862L179.029 90.4317L162.543 106.159C135.068 107.732 159.403 140.759 169.608 113.236C177.085 106.021 179.42 104.416 179.814 106.159C179.882 107.917 178.244 110.091 178.244 110.091V118.741C178.244 121.1 181.384 121.1 181.384 121.1V128.177C182.461 128.069 182.904 128.264 182.954 129.75H188.449C188.995 128.346 189.618 128.23 190.804 128.177V120.313C191.935 120.524 192.471 119.817 193.159 116.382C195.01 118.528 196.211 119.02 198.654 118.741C200.421 114.455 201.516 112.737 204.149 110.877C209.644 139.972 240.259 111.663 210.429 104.586C212.158 102.606 214.612 101.065 219.064 98.2953C217.361 95.7158 216.199 94.3036 212.784 92.0044C218.697 90.1501 221.284 88.9467 224.559 86.4999C222.154 86.1893 221.244 85.7025 220.634 84.1408C227.101 80.8856 228.674 77.6145 230.054 70.7726C228.196 64.7335 226.283 62.1728 220.634 59.7635C218.245 53.1697 215.516 51.1515 209.644 48.7545C202.476 45.8332 199.516 47.946 194.729 53.4726C191.152 53.027 190.062 51.6401 188.449 48.7545C195.73 44.4554 195.376 39.3141 194.768 30.454L194.729 29.8818L191.589 32.2409C187.046 25.6668 184.62 25.2177 180.599 32.2409L176.674 29.8818C175.278 39.3078 175.473 43.9695 181.384 48.7545C181.409 49.1261 181.435 49.4847 181.461 49.8312L181.461 49.8404C181.715 53.318 181.88 55.5717 180.599 57.4044C178.532 55.7007 177.983 54.422 177.459 51.8999L175.889 55.8317C172.329 51.7414 170.716 50.9491 168.038 50.3272Z" fill="#F7F8FB"/>
</svg>
