<svg width="15" height="51" viewBox="0 0 15 51" fill="none" xmlns="http://www.w3.org/2000/svg">
<path id="icon" fill-rule="evenodd" clip-rule="evenodd" d="M12.75 6.7498C12.75 3.70534 11.0711 1.59231 8.89887 0.958034C8.82021 0.754616 8.69593 0.56551 8.52704 0.406823C7.94972 -0.135608 7.05013 -0.135608 6.47281 0.406823C6.30427 0.565174 6.18016 0.753816 6.10148 0.956743C3.92651 1.58832 2.25 3.69669 2.25 6.7498C2.25 8.72522 1.85174 9.83213 1.11447 10.6343C0.991202 10.7684 0.657229 11.0756 0.430999 11.2838L0.430945 11.2838C0.323935 11.3822 0.241041 11.4585 0.215974 11.4838L0 11.7028V14.2604H4.56601C4.72038 15.057 5.15258 15.5899 5.93419 16.0669C6.89565 16.6536 8.10444 16.6536 9.0659 16.0669C9.75569 15.6459 10.2182 14.999 10.4058 14.2604H15V11.7028L14.784 11.4838C14.7613 11.4607 14.6817 11.3873 14.5778 11.2914C14.3522 11.0833 14.0117 10.7692 13.8865 10.6325C13.1488 9.8266 12.75 8.71828 12.75 6.7498ZM8.80265 14.2604H6.13395C6.23991 14.4575 6.42052 14.6064 6.71556 14.7864C7.19725 15.0804 7.80284 15.0804 8.28453 14.7864C8.50763 14.6503 8.68195 14.4701 8.80265 14.2604ZM12.7802 11.6454C12.938 11.8178 13.2763 12.133 13.5001 12.3388V12.7605H1.50009V12.3392C1.72215 12.1357 2.06142 11.8208 2.21896 11.6494C3.22076 10.5594 3.75009 9.08824 3.75009 6.74989C3.75009 3.91481 5.49967 2.25918 7.50009 2.25918C9.49487 2.25918 11.2501 3.92336 11.2501 6.74989C11.2501 9.08074 11.7796 10.5524 12.7802 11.6454Z" />
  <use href="#icon" x="0" y="0" fill="#dadada"/>
  <use href="#icon" x="0" y="17" fill="#FFF"/>
  <use href="#icon" x="0" y="34" fill="#000"/>
</svg>
