<svg width="64" height="192" viewBox="0 0 64 192" fill="none" xmlns="http://www.w3.org/2000/svg">
<path id="icon" fill-rule="evenodd" clip-rule="evenodd" d="M0.416667 26.0834C0.416667 40.2587 11.908 51.75 26.0833 51.75C32.0147 51.75 37.4761 49.7381 41.8224 46.3594L59.1065 63.6436L63.6438 59.1063L46.3597 41.8221C49.7382 37.4759 51.75 32.0146 51.75 26.0834C51.75 11.908 40.2586 0.416687 26.0833 0.416687C11.908 0.416687 0.416667 11.908 0.416667 26.0834ZM26.0833 45.3334C36.7148 45.3334 45.3333 36.7148 45.3333 26.0834C45.3333 15.4519 36.7148 6.83335 26.0833 6.83335C15.4519 6.83335 6.83333 15.4519 6.83333 26.0834C6.83333 36.7148 15.4519 45.3334 26.0833 45.3334ZM22.875 13.25V22.875H13.25V29.2917H22.875V38.9167H29.2917V29.2917H38.9167V22.875H29.2917V13.25H22.875Z" />

  <use href="#icon" x="0" y="0" fill="#dadada"/>
  <use href="#icon" x="0" y="64" fill="#FFF"/>
  <use href="#icon" x="0" y="128" fill="#000"/>
</svg>
