<svg width="34" height="14" viewBox="0 0 34 14" fill="none" xmlns="http://www.w3.org/2000/svg">
<path fill="#000" d="M8 2C5.2 2 3 4.2 3 7C3 9.8 5.2 12 8 12C10.8 12 13 9.8 13 7C13 4.2 10.8 2 8 2ZM8 14C4.5 14 1.6 11.4 1.1 8H1C0.4 8 0 7.6 0 7C0 6.4 0.4 6 1 6H1.1C1.6 2.6 4.5 0 8 0C10.8 0 13.2 1.6 14.3 4H19.6C20.7 1.6 23.1 0 25.9 0C29.4 0 32.3 2.6 32.8 6H33C33.6 6 34 6.4 34 7C34 7.6 33.6 8 33 8H32.9C32.4 11.4 29.5 14 26 14C22.1 14 19 10.9 19 7C19 6.7 19 6.3 19.1 6H15C15 6.3 15 6.7 15 7C15 10.9 11.9 14 8 14ZM31 7C31 4.2 28.8 2 26 2C23.2 2 21 4.2 21 7C21 9.8 23.2 12 26 12C28.8 12 31 9.8 31 7Z" />
</svg>
