<svg width="21" height="63" viewBox="0 0 21 63" fill="none" xmlns="http://www.w3.org/2000/svg">
<path id="icon" d="M18.375 4.85625V3.9375H16.4062L10.5 0L4.4625 3.9375H2.625V4.85625L0 6.5625V21H21V6.69375L18.375 4.85625ZM10.5 1.575L14.0437 3.9375H6.825L10.5 1.575ZM3.9375 5.25H17.0625V10.1062L12.4688 12.3375L10.5 10.6313L8.53125 12.4688L3.9375 10.2375V5.25ZM1.3125 7.21875L2.625 6.3V9.45L1.3125 8.925V7.21875ZM1.3125 10.3688L7.35 13.3875L1.3125 18.6375V10.3688ZM2.49375 19.6875L10.5 12.7312L18.5063 19.6875H2.49375ZM19.6875 18.6375L13.5188 13.2563L19.6875 10.2375V18.6375ZM19.6875 8.79375L18.375 9.45V6.43125L19.6875 7.35V8.79375Z" />
  <use href="#icon" x="0" y="0" fill="#334059"/>
  <use href="#icon" x="0" y="21" fill="#FFF"/>
  <use href="#icon" x="0" y="42" fill="#000"/>
</svg>
